<mxfile host="app.diagrams.net" modified="2023-05-25T11:43:58.536Z" agent="Mozilla/5.0 (Windows NT 10.0; Win64; x64) AppleWebKit/537.36 (KHTML, like Gecko) Chrome/113.0.0.0 Safari/537.36" etag="DGzFMI0ZoFwB2A1wqDlv" version="21.3.3" type="device">
  <diagram name="Page-1" id="BB83m_yvTzUi4F-m9Fvq">
    <mxGraphModel dx="1116" dy="509" grid="1" gridSize="10" guides="1" tooltips="1" connect="1" arrows="1" fold="1" page="1" pageScale="1" pageWidth="850" pageHeight="1100" math="0" shadow="0">
      <root>
        <mxCell id="0" />
        <mxCell id="1" parent="0" />
        <mxCell id="YP4Gqv1PY-A-oXqR-h6G-1" value="Space Company" style="rounded=1;arcSize=10;whiteSpace=wrap;html=1;align=center;" parent="1" vertex="1">
          <mxGeometry x="1034" y="930" width="119" height="40" as="geometry" />
        </mxCell>
        <mxCell id="YP4Gqv1PY-A-oXqR-h6G-2" value="Private Space Company" style="rounded=1;arcSize=10;whiteSpace=wrap;html=1;align=center;" parent="1" vertex="1">
          <mxGeometry x="1114" y="1090" width="120" height="40" as="geometry" />
        </mxCell>
        <mxCell id="YP4Gqv1PY-A-oXqR-h6G-3" value="Public Space Agency" style="rounded=1;arcSize=10;whiteSpace=wrap;html=1;align=center;" parent="1" vertex="1">
          <mxGeometry x="954" y="1090" width="120" height="40" as="geometry" />
        </mxCell>
        <mxCell id="YP4Gqv1PY-A-oXqR-h6G-4" value="Person" style="rounded=1;arcSize=10;whiteSpace=wrap;html=1;align=center;" parent="1" vertex="1">
          <mxGeometry x="1637.5" y="850" width="120" height="40" as="geometry" />
        </mxCell>
        <mxCell id="YP4Gqv1PY-A-oXqR-h6G-5" value="Astronaut" style="rounded=1;arcSize=10;whiteSpace=wrap;html=1;align=center;" parent="1" vertex="1">
          <mxGeometry x="1637.5" y="1015" width="120" height="40" as="geometry" />
        </mxCell>
        <mxCell id="YP4Gqv1PY-A-oXqR-h6G-6" value="Spacecraft" style="rounded=1;arcSize=10;whiteSpace=wrap;html=1;align=center;" parent="1" vertex="1">
          <mxGeometry x="1113.5" y="1430" width="121" height="40" as="geometry" />
        </mxCell>
        <mxCell id="YP4Gqv1PY-A-oXqR-h6G-7" value="Crewed Spacecraft" style="rounded=1;arcSize=10;whiteSpace=wrap;html=1;align=center;" parent="1" vertex="1">
          <mxGeometry x="874.5" y="1645" width="120" height="40" as="geometry" />
        </mxCell>
        <mxCell id="YP4Gqv1PY-A-oXqR-h6G-8" value="Satellite" style="rounded=1;arcSize=10;whiteSpace=wrap;html=1;align=center;" parent="1" vertex="1">
          <mxGeometry x="1034.5" y="1645" width="120" height="40" as="geometry" />
        </mxCell>
        <mxCell id="YP4Gqv1PY-A-oXqR-h6G-9" value="Space Probes" style="rounded=1;arcSize=10;whiteSpace=wrap;html=1;align=center;" parent="1" vertex="1">
          <mxGeometry x="1194.5" y="1645" width="120" height="40" as="geometry" />
        </mxCell>
        <mxCell id="YP4Gqv1PY-A-oXqR-h6G-10" value="Space Station" style="rounded=1;arcSize=10;whiteSpace=wrap;html=1;align=center;" parent="1" vertex="1">
          <mxGeometry x="1354.5" y="1645" width="120" height="40" as="geometry" />
        </mxCell>
        <mxCell id="YP4Gqv1PY-A-oXqR-h6G-11" value="Rover" style="rounded=1;arcSize=10;whiteSpace=wrap;html=1;align=center;" parent="1" vertex="1">
          <mxGeometry x="1114" y="1230" width="120" height="40" as="geometry" />
        </mxCell>
        <mxCell id="YP4Gqv1PY-A-oXqR-h6G-12" value="Specialty" style="rounded=1;arcSize=10;whiteSpace=wrap;html=1;align=center;" parent="1" vertex="1">
          <mxGeometry x="1953" y="855" width="120" height="40" as="geometry" />
        </mxCell>
        <mxCell id="YP4Gqv1PY-A-oXqR-h6G-13" value="Module" style="rounded=1;arcSize=10;whiteSpace=wrap;html=1;align=center;" parent="1" vertex="1">
          <mxGeometry x="1352.5" y="1490" width="120" height="40" as="geometry" />
        </mxCell>
        <mxCell id="YP4Gqv1PY-A-oXqR-h6G-14" value="Program" style="rounded=1;arcSize=10;whiteSpace=wrap;html=1;align=center;" parent="1" vertex="1">
          <mxGeometry x="1274" y="930" width="120" height="40" as="geometry" />
        </mxCell>
        <mxCell id="YP4Gqv1PY-A-oXqR-h6G-15" value="Event" style="rounded=1;arcSize=10;whiteSpace=wrap;html=1;align=center;" parent="1" vertex="1">
          <mxGeometry x="1478.5" y="1011" width="120" height="40" as="geometry" />
        </mxCell>
        <mxCell id="YP4Gqv1PY-A-oXqR-h6G-16" value="Crew" style="rounded=1;arcSize=10;whiteSpace=wrap;html=1;align=center;" parent="1" vertex="1">
          <mxGeometry x="1637.75" y="1227.5" width="120" height="40" as="geometry" />
        </mxCell>
        <mxCell id="YP4Gqv1PY-A-oXqR-h6G-17" value="" style="group" parent="1" vertex="1" connectable="0">
          <mxGeometry x="1092" y="970" width="4" height="41" as="geometry" />
        </mxCell>
        <mxCell id="YP4Gqv1PY-A-oXqR-h6G-18" value="" style="endArrow=none;html=1;rounded=0;exitX=0.382;exitY=1.05;exitDx=0;exitDy=0;exitPerimeter=0;" parent="YP4Gqv1PY-A-oXqR-h6G-17" edge="1">
          <mxGeometry relative="1" as="geometry">
            <mxPoint as="sourcePoint" />
            <mxPoint y="41" as="targetPoint" />
          </mxGeometry>
        </mxCell>
        <mxCell id="YP4Gqv1PY-A-oXqR-h6G-19" value="" style="endArrow=none;html=1;rounded=0;exitX=0.382;exitY=1.05;exitDx=0;exitDy=0;exitPerimeter=0;" parent="YP4Gqv1PY-A-oXqR-h6G-17" edge="1">
          <mxGeometry relative="1" as="geometry">
            <mxPoint x="4" as="sourcePoint" />
            <mxPoint x="4" y="41" as="targetPoint" />
          </mxGeometry>
        </mxCell>
        <mxCell id="YP4Gqv1PY-A-oXqR-h6G-20" value="" style="endArrow=none;html=1;rounded=0;entryX=0.25;entryY=1;entryDx=0;entryDy=0;exitX=0.5;exitY=0;exitDx=0;exitDy=0;" parent="1" source="YP4Gqv1PY-A-oXqR-h6G-3" target="YP4Gqv1PY-A-oXqR-h6G-45" edge="1">
          <mxGeometry relative="1" as="geometry">
            <mxPoint x="844" y="1050" as="sourcePoint" />
            <mxPoint x="1004" y="1050" as="targetPoint" />
          </mxGeometry>
        </mxCell>
        <mxCell id="YP4Gqv1PY-A-oXqR-h6G-21" value="" style="endArrow=none;html=1;rounded=0;entryX=0;entryY=1;entryDx=0;entryDy=0;exitX=0.5;exitY=0;exitDx=0;exitDy=0;" parent="1" source="YP4Gqv1PY-A-oXqR-h6G-2" target="YP4Gqv1PY-A-oXqR-h6G-46" edge="1">
          <mxGeometry relative="1" as="geometry">
            <mxPoint x="1024" y="1100" as="sourcePoint" />
            <mxPoint x="1089" y="1060" as="targetPoint" />
          </mxGeometry>
        </mxCell>
        <mxCell id="YP4Gqv1PY-A-oXqR-h6G-22" value="" style="triangle;whiteSpace=wrap;html=1;rotation=-90;" parent="1" vertex="1">
          <mxGeometry x="1154.5" y="1550" width="40" height="80" as="geometry" />
        </mxCell>
        <mxCell id="YP4Gqv1PY-A-oXqR-h6G-23" value="IS-A" style="text;html=1;strokeColor=none;fillColor=none;align=center;verticalAlign=middle;whiteSpace=wrap;rounded=0;" parent="1" vertex="1">
          <mxGeometry x="1144.5" y="1580" width="60" height="30" as="geometry" />
        </mxCell>
        <mxCell id="YP4Gqv1PY-A-oXqR-h6G-24" value="" style="endArrow=none;html=1;rounded=0;entryX=0.5;entryY=0;entryDx=0;entryDy=0;exitX=0.005;exitY=0.195;exitDx=0;exitDy=0;exitPerimeter=0;" parent="1" source="YP4Gqv1PY-A-oXqR-h6G-22" target="YP4Gqv1PY-A-oXqR-h6G-7" edge="1">
          <mxGeometry relative="1" as="geometry">
            <mxPoint x="1104.5" y="1420" as="sourcePoint" />
            <mxPoint x="1044.5" y="1380" as="targetPoint" />
          </mxGeometry>
        </mxCell>
        <mxCell id="YP4Gqv1PY-A-oXqR-h6G-25" value="" style="endArrow=none;html=1;rounded=0;exitX=0.402;exitY=0.994;exitDx=0;exitDy=0;exitPerimeter=0;entryX=0.5;entryY=0;entryDx=0;entryDy=0;" parent="1" source="YP4Gqv1PY-A-oXqR-h6G-23" target="YP4Gqv1PY-A-oXqR-h6G-8" edge="1">
          <mxGeometry relative="1" as="geometry">
            <mxPoint x="1159.5" y="1500" as="sourcePoint" />
            <mxPoint x="943.5" y="1540" as="targetPoint" />
          </mxGeometry>
        </mxCell>
        <mxCell id="YP4Gqv1PY-A-oXqR-h6G-26" value="" style="endArrow=none;html=1;rounded=0;exitX=0.601;exitY=0.994;exitDx=0;exitDy=0;exitPerimeter=0;entryX=0.5;entryY=0;entryDx=0;entryDy=0;" parent="1" source="YP4Gqv1PY-A-oXqR-h6G-23" target="YP4Gqv1PY-A-oXqR-h6G-9" edge="1">
          <mxGeometry relative="1" as="geometry">
            <mxPoint x="1178.5" y="1620" as="sourcePoint" />
            <mxPoint x="1104.5" y="1660" as="targetPoint" />
          </mxGeometry>
        </mxCell>
        <mxCell id="YP4Gqv1PY-A-oXqR-h6G-27" value="" style="endArrow=none;html=1;rounded=0;entryX=0.5;entryY=0;entryDx=0;entryDy=0;exitX=0.807;exitY=1.01;exitDx=0;exitDy=0;exitPerimeter=0;" parent="1" source="YP4Gqv1PY-A-oXqR-h6G-23" target="YP4Gqv1PY-A-oXqR-h6G-10" edge="1">
          <mxGeometry relative="1" as="geometry">
            <mxPoint x="1474.5" y="1590" as="sourcePoint" />
            <mxPoint x="1258.5" y="1630" as="targetPoint" />
          </mxGeometry>
        </mxCell>
        <mxCell id="YP4Gqv1PY-A-oXqR-h6G-28" value="Disjoint" style="text;html=1;strokeColor=none;fillColor=none;align=center;verticalAlign=middle;whiteSpace=wrap;rounded=0;" parent="1" vertex="1">
          <mxGeometry x="1197.5" y="1575" width="57" height="30" as="geometry" />
        </mxCell>
        <mxCell id="YP4Gqv1PY-A-oXqR-h6G-29" value="" style="endArrow=none;html=1;rounded=0;entryX=1;entryY=0.5;entryDx=0;entryDy=0;exitX=0.5;exitY=1;exitDx=0;exitDy=0;" parent="1" source="YP4Gqv1PY-A-oXqR-h6G-6" target="YP4Gqv1PY-A-oXqR-h6G-22" edge="1">
          <mxGeometry relative="1" as="geometry">
            <mxPoint x="1253.5" y="1470" as="sourcePoint" />
            <mxPoint x="1023.5" y="1600" as="targetPoint" />
          </mxGeometry>
        </mxCell>
        <mxCell id="YP4Gqv1PY-A-oXqR-h6G-30" value="tem" style="shape=rhombus;perimeter=rhombusPerimeter;whiteSpace=wrap;html=1;align=center;" parent="1" vertex="1">
          <mxGeometry x="1394.75" y="1580" width="40" height="30" as="geometry" />
        </mxCell>
        <mxCell id="YP4Gqv1PY-A-oXqR-h6G-31" value="" style="endArrow=none;html=1;rounded=0;entryX=0.5;entryY=0;entryDx=0;entryDy=0;exitX=0.5;exitY=1;exitDx=0;exitDy=0;" parent="1" source="YP4Gqv1PY-A-oXqR-h6G-30" target="YP4Gqv1PY-A-oXqR-h6G-10" edge="1">
          <mxGeometry relative="1" as="geometry">
            <mxPoint x="1632.5" y="1685" as="sourcePoint" />
            <mxPoint x="1412.5" y="1685" as="targetPoint" />
          </mxGeometry>
        </mxCell>
        <mxCell id="YP4Gqv1PY-A-oXqR-h6G-32" value="1" style="text;html=1;align=center;verticalAlign=middle;resizable=0;points=[];autosize=1;strokeColor=none;fillColor=none;" parent="1" vertex="1">
          <mxGeometry x="1409.5" y="1617" width="30" height="30" as="geometry" />
        </mxCell>
        <mxCell id="YP4Gqv1PY-A-oXqR-h6G-33" value="N" style="text;html=1;align=center;verticalAlign=middle;resizable=0;points=[];autosize=1;strokeColor=none;fillColor=none;" parent="1" vertex="1">
          <mxGeometry x="1411" y="1528" width="30" height="30" as="geometry" />
        </mxCell>
        <mxCell id="YP4Gqv1PY-A-oXqR-h6G-34" value="" style="endArrow=none;html=1;rounded=0;entryX=0.5;entryY=1;entryDx=0;entryDy=0;exitX=1;exitY=0.5;exitDx=0;exitDy=0;" parent="1" source="YP4Gqv1PY-A-oXqR-h6G-35" target="YP4Gqv1PY-A-oXqR-h6G-4" edge="1">
          <mxGeometry relative="1" as="geometry">
            <mxPoint x="1707.5" y="955" as="sourcePoint" />
            <mxPoint x="1697.5" y="905" as="targetPoint" />
          </mxGeometry>
        </mxCell>
        <mxCell id="YP4Gqv1PY-A-oXqR-h6G-35" value="" style="triangle;whiteSpace=wrap;html=1;rotation=-90;" parent="1" vertex="1">
          <mxGeometry x="1685" y="915" width="25" height="60" as="geometry" />
        </mxCell>
        <mxCell id="YP4Gqv1PY-A-oXqR-h6G-36" value="IS-A" style="text;html=1;strokeColor=none;fillColor=none;align=center;verticalAlign=middle;whiteSpace=wrap;rounded=0;" parent="1" vertex="1">
          <mxGeometry x="1678.75" y="937.5" width="37.5" height="22.5" as="geometry" />
        </mxCell>
        <mxCell id="YP4Gqv1PY-A-oXqR-h6G-37" value="" style="endArrow=none;html=1;rounded=0;exitX=0.5;exitY=0;exitDx=0;exitDy=0;entryX=0;entryY=0.5;entryDx=0;entryDy=0;" parent="1" source="YP4Gqv1PY-A-oXqR-h6G-5" target="YP4Gqv1PY-A-oXqR-h6G-35" edge="1">
          <mxGeometry relative="1" as="geometry">
            <mxPoint x="1697.21" y="988" as="sourcePoint" />
            <mxPoint x="1697.5" y="955" as="targetPoint" />
          </mxGeometry>
        </mxCell>
        <mxCell id="YP4Gqv1PY-A-oXqR-h6G-38" value="" style="endArrow=none;html=1;rounded=0;entryX=0;entryY=0.5;entryDx=0;entryDy=0;" parent="1" target="YP4Gqv1PY-A-oXqR-h6G-39" edge="1">
          <mxGeometry relative="1" as="geometry">
            <mxPoint x="1757.5" y="875" as="sourcePoint" />
            <mxPoint x="1877.5" y="875" as="targetPoint" />
            <Array as="points">
              <mxPoint x="1817.5" y="875" />
            </Array>
          </mxGeometry>
        </mxCell>
        <mxCell id="YP4Gqv1PY-A-oXqR-h6G-39" value="tem" style="shape=rhombus;perimeter=rhombusPerimeter;whiteSpace=wrap;html=1;align=center;" parent="1" vertex="1">
          <mxGeometry x="1834.5" y="855" width="50" height="40" as="geometry" />
        </mxCell>
        <mxCell id="YP4Gqv1PY-A-oXqR-h6G-40" value="N" style="text;html=1;align=center;verticalAlign=middle;resizable=0;points=[];autosize=1;strokeColor=none;fillColor=none;" parent="1" vertex="1">
          <mxGeometry x="1752.5" y="850" width="30" height="30" as="geometry" />
        </mxCell>
        <mxCell id="YP4Gqv1PY-A-oXqR-h6G-41" value="M" style="text;html=1;align=center;verticalAlign=middle;resizable=0;points=[];autosize=1;strokeColor=none;fillColor=none;" parent="1" vertex="1">
          <mxGeometry x="1923" y="842.5" width="30" height="30" as="geometry" />
        </mxCell>
        <mxCell id="YP4Gqv1PY-A-oXqR-h6G-42" value="" style="group;rotation=90;" parent="1" vertex="1" connectable="0">
          <mxGeometry x="1248" y="1004" width="65" height="72" as="geometry" />
        </mxCell>
        <mxCell id="YP4Gqv1PY-A-oXqR-h6G-43" value="" style="group" parent="YP4Gqv1PY-A-oXqR-h6G-42" vertex="1" connectable="0">
          <mxGeometry x="-194" y="6" width="259" height="66" as="geometry" />
        </mxCell>
        <mxCell id="YP4Gqv1PY-A-oXqR-h6G-44" value="" style="triangle;whiteSpace=wrap;html=1;rotation=-90;" parent="YP4Gqv1PY-A-oXqR-h6G-43" vertex="1">
          <mxGeometry x="20" y="-20" width="40" height="80" as="geometry" />
        </mxCell>
        <mxCell id="YP4Gqv1PY-A-oXqR-h6G-45" value="IS-A" style="text;html=1;strokeColor=none;fillColor=none;align=center;verticalAlign=middle;whiteSpace=wrap;rounded=0;" parent="YP4Gqv1PY-A-oXqR-h6G-43" vertex="1">
          <mxGeometry x="10" y="10" width="60" height="30" as="geometry" />
        </mxCell>
        <mxCell id="YP4Gqv1PY-A-oXqR-h6G-46" value="Disjoint" style="text;html=1;strokeColor=none;fillColor=none;align=center;verticalAlign=middle;whiteSpace=wrap;rounded=0;" parent="YP4Gqv1PY-A-oXqR-h6G-43" vertex="1">
          <mxGeometry x="60" y="10" width="60" height="30" as="geometry" />
        </mxCell>
        <mxCell id="YP4Gqv1PY-A-oXqR-h6G-47" value="Mission_ID" style="ellipse;whiteSpace=wrap;html=1;align=center;fontStyle=4;" parent="YP4Gqv1PY-A-oXqR-h6G-43" vertex="1">
          <mxGeometry x="139" y="-10" width="60" height="30" as="geometry" />
        </mxCell>
        <mxCell id="YP4Gqv1PY-A-oXqR-h6G-48" value="Status" style="ellipse;whiteSpace=wrap;html=1;align=center;" parent="YP4Gqv1PY-A-oXqR-h6G-43" vertex="1">
          <mxGeometry x="139" y="30" width="60" height="30" as="geometry" />
        </mxCell>
        <mxCell id="YP4Gqv1PY-A-oXqR-h6G-49" value="" style="endArrow=none;html=1;rounded=0;entryX=0;entryY=0.5;entryDx=0;entryDy=0;exitX=1;exitY=0.5;exitDx=0;exitDy=0;" parent="1" source="YP4Gqv1PY-A-oXqR-h6G-1" edge="1">
          <mxGeometry relative="1" as="geometry">
            <mxPoint x="1164" y="950" as="sourcePoint" />
            <mxPoint x="1194" y="950" as="targetPoint" />
          </mxGeometry>
        </mxCell>
        <mxCell id="YP4Gqv1PY-A-oXqR-h6G-50" value="1" style="text;html=1;align=center;verticalAlign=middle;resizable=0;points=[];autosize=1;strokeColor=none;fillColor=none;" parent="1" vertex="1">
          <mxGeometry x="1145.5" y="920" width="30" height="30" as="geometry" />
        </mxCell>
        <mxCell id="YP4Gqv1PY-A-oXqR-h6G-51" value="N" style="text;html=1;align=center;verticalAlign=middle;resizable=0;points=[];autosize=1;strokeColor=none;fillColor=none;" parent="1" vertex="1">
          <mxGeometry x="1244" y="920" width="30" height="30" as="geometry" />
        </mxCell>
        <mxCell id="YP4Gqv1PY-A-oXqR-h6G-52" value="tem" style="shape=rhombus;perimeter=rhombusPerimeter;whiteSpace=wrap;html=1;align=center;" parent="1" vertex="1">
          <mxGeometry x="1309" y="1050" width="50" height="40" as="geometry" />
        </mxCell>
        <mxCell id="YP4Gqv1PY-A-oXqR-h6G-53" value="" style="endArrow=none;html=1;rounded=0;entryX=0.5;entryY=1;entryDx=0;entryDy=0;exitX=0.5;exitY=0;exitDx=0;exitDy=0;" parent="1" source="YP4Gqv1PY-A-oXqR-h6G-52" target="YP4Gqv1PY-A-oXqR-h6G-14" edge="1">
          <mxGeometry relative="1" as="geometry">
            <mxPoint x="1323" y="1010" as="sourcePoint" />
            <mxPoint x="1353" y="1010" as="targetPoint" />
          </mxGeometry>
        </mxCell>
        <mxCell id="YP4Gqv1PY-A-oXqR-h6G-54" value="tem" style="shape=rhombus;perimeter=rhombusPerimeter;whiteSpace=wrap;html=1;align=center;" parent="1" vertex="1">
          <mxGeometry x="1023" y="1310" width="50" height="40" as="geometry" />
        </mxCell>
        <mxCell id="YP4Gqv1PY-A-oXqR-h6G-55" value="tem" style="shape=rhombus;perimeter=rhombusPerimeter;whiteSpace=wrap;html=1;align=center;" parent="1" vertex="1">
          <mxGeometry x="1023" y="1390" width="50" height="40" as="geometry" />
        </mxCell>
        <mxCell id="YP4Gqv1PY-A-oXqR-h6G-56" value="Launch Vehicle" style="rounded=1;arcSize=10;whiteSpace=wrap;html=1;align=center;" parent="1" vertex="1">
          <mxGeometry x="868" y="1310" width="120" height="40" as="geometry" />
        </mxCell>
        <mxCell id="YP4Gqv1PY-A-oXqR-h6G-57" value="Launch Site" style="rounded=1;arcSize=10;whiteSpace=wrap;html=1;align=center;" parent="1" vertex="1">
          <mxGeometry x="868" y="1390" width="120" height="40" as="geometry" />
        </mxCell>
        <mxCell id="YP4Gqv1PY-A-oXqR-h6G-58" value="" style="endArrow=none;html=1;rounded=0;exitX=1;exitY=0.5;exitDx=0;exitDy=0;" parent="1" edge="1">
          <mxGeometry relative="1" as="geometry">
            <mxPoint x="988" y="1330" as="sourcePoint" />
            <mxPoint x="1023.5" y="1330" as="targetPoint" />
          </mxGeometry>
        </mxCell>
        <mxCell id="YP4Gqv1PY-A-oXqR-h6G-59" value="1" style="text;html=1;align=center;verticalAlign=middle;resizable=0;points=[];autosize=1;strokeColor=none;fillColor=none;" parent="1" vertex="1">
          <mxGeometry x="978" y="1325" width="30" height="30" as="geometry" />
        </mxCell>
        <mxCell id="YP4Gqv1PY-A-oXqR-h6G-60" value="1" style="text;html=1;align=center;verticalAlign=middle;resizable=0;points=[];autosize=1;strokeColor=none;fillColor=none;" parent="1" vertex="1">
          <mxGeometry x="978" y="1400" width="30" height="30" as="geometry" />
        </mxCell>
        <mxCell id="YP4Gqv1PY-A-oXqR-h6G-61" value="" style="endArrow=none;html=1;rounded=0;exitX=0.945;exitY=0.546;exitDx=0;exitDy=0;exitPerimeter=0;entryX=-0.001;entryY=0.546;entryDx=0;entryDy=0;entryPerimeter=0;" parent="1" source="YP4Gqv1PY-A-oXqR-h6G-54" target="YP4Gqv1PY-A-oXqR-h6G-118" edge="1">
          <mxGeometry relative="1" as="geometry">
            <mxPoint x="1074" y="1331.9" as="sourcePoint" />
            <mxPoint x="1098" y="1340" as="targetPoint" />
          </mxGeometry>
        </mxCell>
        <mxCell id="YP4Gqv1PY-A-oXqR-h6G-62" value="" style="endArrow=none;html=1;rounded=0;exitX=0.961;exitY=0.441;exitDx=0;exitDy=0;exitPerimeter=0;entryX=0.002;entryY=0.445;entryDx=0;entryDy=0;entryPerimeter=0;" parent="1" source="YP4Gqv1PY-A-oXqR-h6G-54" target="YP4Gqv1PY-A-oXqR-h6G-118" edge="1">
          <mxGeometry relative="1" as="geometry">
            <mxPoint x="1074" y="1327.9" as="sourcePoint" />
            <mxPoint x="1092" y="1328" as="targetPoint" />
          </mxGeometry>
        </mxCell>
        <mxCell id="YP4Gqv1PY-A-oXqR-h6G-63" value="N" style="text;html=1;align=center;verticalAlign=middle;resizable=0;points=[];autosize=1;strokeColor=none;fillColor=none;" parent="1" vertex="1">
          <mxGeometry x="1088" y="1325" width="30" height="30" as="geometry" />
        </mxCell>
        <mxCell id="YP4Gqv1PY-A-oXqR-h6G-64" value="" style="group;rotation=0;flipH=1;" parent="1" vertex="1" connectable="0">
          <mxGeometry x="1125" y="1360" width="35" height="12" as="geometry" />
        </mxCell>
        <mxCell id="YP4Gqv1PY-A-oXqR-h6G-65" value="" style="endArrow=none;html=1;rounded=0;" parent="YP4Gqv1PY-A-oXqR-h6G-64" edge="1">
          <mxGeometry relative="1" as="geometry">
            <mxPoint x="7" y="48" as="sourcePoint" />
            <mxPoint x="7" y="-10" as="targetPoint" />
          </mxGeometry>
        </mxCell>
        <mxCell id="YP4Gqv1PY-A-oXqR-h6G-66" value="" style="endArrow=none;html=1;rounded=0;" parent="YP4Gqv1PY-A-oXqR-h6G-64" edge="1">
          <mxGeometry relative="1" as="geometry">
            <mxPoint x="11" y="52" as="sourcePoint" />
            <mxPoint x="11.5" y="-10" as="targetPoint" />
          </mxGeometry>
        </mxCell>
        <mxCell id="YP4Gqv1PY-A-oXqR-h6G-67" value="N" style="text;html=1;align=center;verticalAlign=middle;resizable=0;points=[];autosize=1;strokeColor=none;fillColor=none;" parent="YP4Gqv1PY-A-oXqR-h6G-64" vertex="1">
          <mxGeometry x="5" y="-18" width="30" height="30" as="geometry" />
        </mxCell>
        <mxCell id="YP4Gqv1PY-A-oXqR-h6G-68" value="" style="group;rotation=0;flipH=1;" parent="1" vertex="1" connectable="0">
          <mxGeometry x="1081" y="1408" width="18" height="4.100000000000023" as="geometry" />
        </mxCell>
        <mxCell id="YP4Gqv1PY-A-oXqR-h6G-69" value="" style="endArrow=none;html=1;rounded=0;entryX=0.053;entryY=0.549;entryDx=0;entryDy=0;entryPerimeter=0;" parent="YP4Gqv1PY-A-oXqR-h6G-68" edge="1">
          <mxGeometry relative="1" as="geometry">
            <mxPoint x="55" y="4" as="sourcePoint" />
            <mxPoint y="4" as="targetPoint" />
          </mxGeometry>
        </mxCell>
        <mxCell id="YP4Gqv1PY-A-oXqR-h6G-70" value="" style="endArrow=none;html=1;rounded=0;entryX=0.056;entryY=0.44;entryDx=0;entryDy=0;entryPerimeter=0;" parent="YP4Gqv1PY-A-oXqR-h6G-68" edge="1">
          <mxGeometry relative="1" as="geometry">
            <mxPoint x="51" as="sourcePoint" />
            <mxPoint as="targetPoint" />
          </mxGeometry>
        </mxCell>
        <mxCell id="YP4Gqv1PY-A-oXqR-h6G-71" value="" style="group;rotation=0;flipH=1;" parent="1" vertex="1" connectable="0">
          <mxGeometry x="1071" y="1408" width="18" height="4.100000000000023" as="geometry" />
        </mxCell>
        <mxCell id="YP4Gqv1PY-A-oXqR-h6G-72" value="" style="endArrow=none;html=1;rounded=0;entryX=0.053;entryY=0.549;entryDx=0;entryDy=0;entryPerimeter=0;" parent="YP4Gqv1PY-A-oXqR-h6G-71" edge="1">
          <mxGeometry relative="1" as="geometry">
            <mxPoint x="55" y="4" as="sourcePoint" />
            <mxPoint y="4" as="targetPoint" />
          </mxGeometry>
        </mxCell>
        <mxCell id="YP4Gqv1PY-A-oXqR-h6G-73" value="" style="endArrow=none;html=1;rounded=0;entryX=0.056;entryY=0.44;entryDx=0;entryDy=0;entryPerimeter=0;" parent="YP4Gqv1PY-A-oXqR-h6G-71" edge="1">
          <mxGeometry relative="1" as="geometry">
            <mxPoint x="51" as="sourcePoint" />
            <mxPoint as="targetPoint" />
          </mxGeometry>
        </mxCell>
        <mxCell id="YP4Gqv1PY-A-oXqR-h6G-74" value="" style="endArrow=none;html=1;rounded=0;entryX=0;entryY=0.5;entryDx=0;entryDy=0;exitX=1;exitY=0.5;exitDx=0;exitDy=0;" parent="1" edge="1">
          <mxGeometry relative="1" as="geometry">
            <mxPoint x="988" y="1409.8600000000001" as="sourcePoint" />
            <mxPoint x="1023" y="1409.8600000000001" as="targetPoint" />
          </mxGeometry>
        </mxCell>
        <mxCell id="YP4Gqv1PY-A-oXqR-h6G-75" value="Vehicle" style="rounded=1;arcSize=10;whiteSpace=wrap;html=1;align=center;" parent="1" vertex="1">
          <mxGeometry x="773" y="1091" width="120" height="40" as="geometry" />
        </mxCell>
        <mxCell id="YP4Gqv1PY-A-oXqR-h6G-76" value="" style="triangle;whiteSpace=wrap;html=1;rotation=-90;" parent="1" vertex="1">
          <mxGeometry x="820" y="1225" width="25" height="60" as="geometry" />
        </mxCell>
        <mxCell id="YP4Gqv1PY-A-oXqR-h6G-77" value="IS-A" style="text;html=1;strokeColor=none;fillColor=none;align=center;verticalAlign=middle;whiteSpace=wrap;rounded=0;" parent="1" vertex="1">
          <mxGeometry x="813.75" y="1247.5" width="37.5" height="22.5" as="geometry" />
        </mxCell>
        <mxCell id="YP4Gqv1PY-A-oXqR-h6G-78" value="" style="endArrow=none;html=1;rounded=0;entryX=1;entryY=0.5;entryDx=0;entryDy=0;exitX=0.5;exitY=1;exitDx=0;exitDy=0;" parent="1" target="YP4Gqv1PY-A-oXqR-h6G-76" edge="1">
          <mxGeometry relative="1" as="geometry">
            <mxPoint x="833.5" y="1131" as="sourcePoint" />
            <mxPoint x="832.5" y="1176" as="targetPoint" />
          </mxGeometry>
        </mxCell>
        <mxCell id="YP4Gqv1PY-A-oXqR-h6G-79" value="" style="endArrow=none;html=1;rounded=0;exitX=0;exitY=0.75;exitDx=0;exitDy=0;entryX=0;entryY=0.25;entryDx=0;entryDy=0;" parent="1" source="YP4Gqv1PY-A-oXqR-h6G-76" target="YP4Gqv1PY-A-oXqR-h6G-56" edge="1">
          <mxGeometry relative="1" as="geometry">
            <mxPoint x="784.67" y="1270" as="sourcePoint" />
            <mxPoint x="786.5" y="1318" as="targetPoint" />
            <Array as="points">
              <mxPoint x="847.5" y="1320" />
            </Array>
          </mxGeometry>
        </mxCell>
        <mxCell id="YP4Gqv1PY-A-oXqR-h6G-80" value="" style="endArrow=none;html=1;rounded=0;exitX=0.25;exitY=1;exitDx=0;exitDy=0;entryX=0;entryY=0.5;entryDx=0;entryDy=0;" parent="1" source="YP4Gqv1PY-A-oXqR-h6G-77" target="YP4Gqv1PY-A-oXqR-h6G-6" edge="1">
          <mxGeometry relative="1" as="geometry">
            <mxPoint x="760.5" y="1267" as="sourcePoint" />
            <mxPoint x="754.5" y="1566.5714285714287" as="targetPoint" />
            <Array as="points">
              <mxPoint x="822.5" y="1450" />
            </Array>
          </mxGeometry>
        </mxCell>
        <mxCell id="YP4Gqv1PY-A-oXqR-h6G-81" value="tem" style="shape=rhombus;perimeter=rhombusPerimeter;whiteSpace=wrap;html=1;align=center;" parent="1" vertex="1">
          <mxGeometry x="808" y="930" width="50" height="40" as="geometry" />
        </mxCell>
        <mxCell id="YP4Gqv1PY-A-oXqR-h6G-82" value="" style="endArrow=none;html=1;rounded=0;entryX=0.5;entryY=0;entryDx=0;entryDy=0;exitX=0.5;exitY=1;exitDx=0;exitDy=0;" parent="1" target="YP4Gqv1PY-A-oXqR-h6G-75" edge="1">
          <mxGeometry relative="1" as="geometry">
            <mxPoint x="833.1600000000001" y="970" as="sourcePoint" />
            <mxPoint x="832.6600000000001" y="1022" as="targetPoint" />
          </mxGeometry>
        </mxCell>
        <mxCell id="YP4Gqv1PY-A-oXqR-h6G-83" value="" style="endArrow=none;html=1;rounded=0;exitX=1;exitY=0.5;exitDx=0;exitDy=0;" parent="1" source="YP4Gqv1PY-A-oXqR-h6G-81" target="YP4Gqv1PY-A-oXqR-h6G-1" edge="1">
          <mxGeometry relative="1" as="geometry">
            <mxPoint x="783.1600000000001" y="980" as="sourcePoint" />
            <mxPoint x="783" y="1101" as="targetPoint" />
          </mxGeometry>
        </mxCell>
        <mxCell id="YP4Gqv1PY-A-oXqR-h6G-84" value="N" style="text;html=1;align=center;verticalAlign=middle;resizable=0;points=[];autosize=1;strokeColor=none;fillColor=none;" parent="1" vertex="1">
          <mxGeometry x="828" y="1065" width="30" height="30" as="geometry" />
        </mxCell>
        <mxCell id="YP4Gqv1PY-A-oXqR-h6G-85" value="1" style="text;html=1;align=center;verticalAlign=middle;resizable=0;points=[];autosize=1;strokeColor=none;fillColor=none;" parent="1" vertex="1">
          <mxGeometry x="1008" y="945" width="30" height="30" as="geometry" />
        </mxCell>
        <mxCell id="YP4Gqv1PY-A-oXqR-h6G-86" value="" style="endArrow=none;html=1;rounded=0;entryX=0;entryY=0.75;entryDx=0;entryDy=0;exitX=1;exitY=0.5;exitDx=0;exitDy=0;" parent="1" source="YP4Gqv1PY-A-oXqR-h6G-77" target="YP4Gqv1PY-A-oXqR-h6G-11" edge="1">
          <mxGeometry relative="1" as="geometry">
            <mxPoint x="783" y="1201" as="sourcePoint" />
            <mxPoint x="782.5" y="1253" as="targetPoint" />
          </mxGeometry>
        </mxCell>
        <mxCell id="YP4Gqv1PY-A-oXqR-h6G-87" value="Payload" style="shape=associativeEntity;whiteSpace=wrap;html=1;align=center;" parent="1" vertex="1">
          <mxGeometry x="1333" y="1310" width="61" height="40" as="geometry" />
        </mxCell>
        <mxCell id="YP4Gqv1PY-A-oXqR-h6G-88" value="" style="endArrow=none;html=1;rounded=0;exitX=1;exitY=0.5;exitDx=0;exitDy=0;entryX=0.5;entryY=1;entryDx=0;entryDy=0;" parent="1" source="YP4Gqv1PY-A-oXqR-h6G-6" target="YP4Gqv1PY-A-oXqR-h6G-87" edge="1">
          <mxGeometry relative="1" as="geometry">
            <mxPoint x="1262.5" y="1470" as="sourcePoint" />
            <mxPoint x="1422.5" y="1470" as="targetPoint" />
            <Array as="points">
              <mxPoint x="1363" y="1450" />
            </Array>
          </mxGeometry>
        </mxCell>
        <mxCell id="YP4Gqv1PY-A-oXqR-h6G-89" value="" style="endArrow=none;html=1;rounded=0;exitX=0.5;exitY=0;exitDx=0;exitDy=0;entryX=0.75;entryY=1;entryDx=0;entryDy=0;" parent="1" source="YP4Gqv1PY-A-oXqR-h6G-87" target="YP4Gqv1PY-A-oXqR-h6G-113" edge="1">
          <mxGeometry relative="1" as="geometry">
            <mxPoint x="1200.5" y="1460" as="sourcePoint" />
            <mxPoint x="1362.5" y="1230" as="targetPoint" />
          </mxGeometry>
        </mxCell>
        <mxCell id="YP4Gqv1PY-A-oXqR-h6G-90" value="N" style="text;html=1;align=center;verticalAlign=middle;resizable=0;points=[];autosize=1;strokeColor=none;fillColor=none;" parent="1" vertex="1">
          <mxGeometry x="1230.5" y="1445" width="30" height="30" as="geometry" />
        </mxCell>
        <mxCell id="YP4Gqv1PY-A-oXqR-h6G-91" value="M" style="text;html=1;align=center;verticalAlign=middle;resizable=0;points=[];autosize=1;strokeColor=none;fillColor=none;" parent="1" vertex="1">
          <mxGeometry x="1354" y="1165" width="30" height="30" as="geometry" />
        </mxCell>
        <mxCell id="YP4Gqv1PY-A-oXqR-h6G-92" value="M" style="text;html=1;align=center;verticalAlign=middle;resizable=0;points=[];autosize=1;strokeColor=none;fillColor=none;" parent="1" vertex="1">
          <mxGeometry x="1328" y="1101" width="30" height="30" as="geometry" />
        </mxCell>
        <mxCell id="YP4Gqv1PY-A-oXqR-h6G-93" value="N" style="text;html=1;align=center;verticalAlign=middle;resizable=0;points=[];autosize=1;strokeColor=none;fillColor=none;" parent="1" vertex="1">
          <mxGeometry x="1328" y="965" width="30" height="30" as="geometry" />
        </mxCell>
        <mxCell id="YP4Gqv1PY-A-oXqR-h6G-94" value="" style="endArrow=none;html=1;rounded=0;exitX=0.5;exitY=0;exitDx=0;exitDy=0;entryX=0;entryY=0.5;entryDx=0;entryDy=0;" parent="1" source="YP4Gqv1PY-A-oXqR-h6G-99" edge="1">
          <mxGeometry relative="1" as="geometry">
            <mxPoint x="1697.08" y="1112" as="sourcePoint" />
            <mxPoint x="1697.08" y="1055" as="targetPoint" />
          </mxGeometry>
        </mxCell>
        <mxCell id="YP4Gqv1PY-A-oXqR-h6G-95" value="" style="group;rotation=90;" parent="1" vertex="1" connectable="0">
          <mxGeometry x="1670.5" y="1147" width="54" height="34.01999999999998" as="geometry" />
        </mxCell>
        <mxCell id="YP4Gqv1PY-A-oXqR-h6G-96" value="" style="endArrow=none;html=1;rounded=0;entryX=0.478;entryY=0.003;entryDx=0;entryDy=0;entryPerimeter=0;exitX=0.94;exitY=0.557;exitDx=0;exitDy=0;exitPerimeter=0;" parent="YP4Gqv1PY-A-oXqR-h6G-95" target="YP4Gqv1PY-A-oXqR-h6G-16" edge="1">
          <mxGeometry relative="1" as="geometry">
            <mxPoint x="25" y="-25" as="sourcePoint" />
            <mxPoint x="25" y="29" as="targetPoint" />
          </mxGeometry>
        </mxCell>
        <mxCell id="YP4Gqv1PY-A-oXqR-h6G-97" value="" style="endArrow=none;html=1;rounded=0;exitX=0.94;exitY=0.453;exitDx=0;exitDy=0;exitPerimeter=0;entryX=0.514;entryY=0.011;entryDx=0;entryDy=0;entryPerimeter=0;" parent="YP4Gqv1PY-A-oXqR-h6G-95" target="YP4Gqv1PY-A-oXqR-h6G-16" edge="1">
          <mxGeometry relative="1" as="geometry">
            <mxPoint x="29" y="-25" as="sourcePoint" />
            <mxPoint x="29" y="29" as="targetPoint" />
          </mxGeometry>
        </mxCell>
        <mxCell id="YP4Gqv1PY-A-oXqR-h6G-98" value="M" style="text;html=1;align=center;verticalAlign=middle;resizable=0;points=[];autosize=1;strokeColor=none;fillColor=none;" parent="YP4Gqv1PY-A-oXqR-h6G-95" vertex="1">
          <mxGeometry x="24" y="4.019999999999982" width="30" height="30" as="geometry" />
        </mxCell>
        <mxCell id="YP4Gqv1PY-A-oXqR-h6G-99" value="tem" style="shape=rhombus;perimeter=rhombusPerimeter;whiteSpace=wrap;html=1;align=center;" parent="1" vertex="1">
          <mxGeometry x="1672.5" y="1096" width="50" height="40" as="geometry" />
        </mxCell>
        <mxCell id="YP4Gqv1PY-A-oXqR-h6G-100" value="N" style="text;html=1;align=center;verticalAlign=middle;resizable=0;points=[];autosize=1;strokeColor=none;fillColor=none;" parent="1" vertex="1">
          <mxGeometry x="1692.5" y="1051" width="30" height="30" as="geometry" />
        </mxCell>
        <mxCell id="YP4Gqv1PY-A-oXqR-h6G-101" value="" style="endArrow=none;html=1;rounded=0;entryX=0.5;entryY=1;entryDx=0;entryDy=0;exitX=1;exitY=0.5;exitDx=0;exitDy=0;" parent="1" source="YP4Gqv1PY-A-oXqR-h6G-87" target="YP4Gqv1PY-A-oXqR-h6G-299" edge="1">
          <mxGeometry relative="1" as="geometry">
            <mxPoint x="1473" y="1340" as="sourcePoint" />
            <mxPoint x="1817.5" y="1265" as="targetPoint" />
            <Array as="points">
              <mxPoint x="1513" y="1330" />
              <mxPoint x="1569" y="1330" />
            </Array>
          </mxGeometry>
        </mxCell>
        <mxCell id="YP4Gqv1PY-A-oXqR-h6G-102" value="1" style="text;html=1;align=center;verticalAlign=middle;resizable=0;points=[];autosize=1;strokeColor=none;fillColor=none;" parent="1" vertex="1">
          <mxGeometry x="1227.5" y="1225" width="30" height="30" as="geometry" />
        </mxCell>
        <mxCell id="YP4Gqv1PY-A-oXqR-h6G-103" value="1" style="text;html=1;align=center;verticalAlign=middle;resizable=0;points=[];autosize=1;strokeColor=none;fillColor=none;" parent="1" vertex="1">
          <mxGeometry x="1607.75" y="1222.5" width="30" height="30" as="geometry" />
        </mxCell>
        <mxCell id="YP4Gqv1PY-A-oXqR-h6G-104" value="tem" style="shape=rhombus;perimeter=rhombusPerimeter;whiteSpace=wrap;html=1;align=center;" parent="1" vertex="1">
          <mxGeometry x="1510.5" y="1130" width="50" height="40" as="geometry" />
        </mxCell>
        <mxCell id="YP4Gqv1PY-A-oXqR-h6G-105" value="" style="endArrow=none;html=1;rounded=0;exitX=0;exitY=0.5;exitDx=0;exitDy=0;" parent="1" source="YP4Gqv1PY-A-oXqR-h6G-104" edge="1">
          <mxGeometry relative="1" as="geometry">
            <mxPoint x="1507.5" y="1045" as="sourcePoint" />
            <mxPoint x="1393" y="1150" as="targetPoint" />
          </mxGeometry>
        </mxCell>
        <mxCell id="YP4Gqv1PY-A-oXqR-h6G-106" value="N" style="text;html=1;align=center;verticalAlign=middle;resizable=0;points=[];autosize=1;strokeColor=none;fillColor=none;" parent="1" vertex="1">
          <mxGeometry x="1538.5" y="1046" width="30" height="30" as="geometry" />
        </mxCell>
        <mxCell id="YP4Gqv1PY-A-oXqR-h6G-107" value="1" style="text;html=1;align=center;verticalAlign=middle;resizable=0;points=[];autosize=1;strokeColor=none;fillColor=none;" parent="1" vertex="1">
          <mxGeometry x="1394" y="1127" width="30" height="30" as="geometry" />
        </mxCell>
        <mxCell id="YP4Gqv1PY-A-oXqR-h6G-108" value="" style="endArrow=none;html=1;rounded=0;exitX=0.382;exitY=1.05;exitDx=0;exitDy=0;exitPerimeter=0;entryX=0.934;entryY=0.429;entryDx=0;entryDy=0;entryPerimeter=0;" parent="1" edge="1">
          <mxGeometry relative="1" as="geometry">
            <mxPoint x="1275" y="947" as="sourcePoint" />
            <mxPoint x="1241.7" y="947.1599999999999" as="targetPoint" />
          </mxGeometry>
        </mxCell>
        <mxCell id="YP4Gqv1PY-A-oXqR-h6G-109" value="" style="endArrow=none;html=1;rounded=0;entryX=0.951;entryY=0.547;entryDx=0;entryDy=0;entryPerimeter=0;" parent="1" edge="1">
          <mxGeometry relative="1" as="geometry">
            <mxPoint x="1275" y="952" as="sourcePoint" />
            <mxPoint x="1242.55" y="951.8800000000001" as="targetPoint" />
          </mxGeometry>
        </mxCell>
        <mxCell id="YP4Gqv1PY-A-oXqR-h6G-110" value="" style="group;rotation=90;" parent="1" vertex="1" connectable="0">
          <mxGeometry x="1519.5" y="1084" width="54" height="4.019999999999982" as="geometry" />
        </mxCell>
        <mxCell id="YP4Gqv1PY-A-oXqR-h6G-111" value="" style="endArrow=none;html=1;rounded=0;entryX=0.53;entryY=0.032;entryDx=0;entryDy=0;entryPerimeter=0;exitX=0.487;exitY=0.99;exitDx=0;exitDy=0;exitPerimeter=0;" parent="1" source="YP4Gqv1PY-A-oXqR-h6G-15" target="YP4Gqv1PY-A-oXqR-h6G-104" edge="1">
          <mxGeometry relative="1" as="geometry">
            <mxPoint x="1552.5" y="970" as="sourcePoint" />
            <mxPoint x="1551.5" y="993" as="targetPoint" />
          </mxGeometry>
        </mxCell>
        <mxCell id="YP4Gqv1PY-A-oXqR-h6G-112" value="" style="endArrow=none;html=1;rounded=0;entryX=0.458;entryY=0.035;entryDx=0;entryDy=0;entryPerimeter=0;exitX=0.458;exitY=1.017;exitDx=0;exitDy=0;exitPerimeter=0;" parent="1" source="YP4Gqv1PY-A-oXqR-h6G-15" target="YP4Gqv1PY-A-oXqR-h6G-104" edge="1">
          <mxGeometry relative="1" as="geometry">
            <mxPoint x="1533.5" y="1090" as="sourcePoint" />
            <mxPoint x="1547.5" y="999" as="targetPoint" />
          </mxGeometry>
        </mxCell>
        <mxCell id="YP4Gqv1PY-A-oXqR-h6G-113" value="Mission" style="rounded=1;arcSize=10;whiteSpace=wrap;html=1;align=center;" parent="1" vertex="1">
          <mxGeometry x="1273" y="1130" width="120" height="40" as="geometry" />
        </mxCell>
        <mxCell id="YP4Gqv1PY-A-oXqR-h6G-114" value="" style="endArrow=none;html=1;rounded=0;entryX=0.523;entryY=0.011;entryDx=0;entryDy=0;entryPerimeter=0;exitX=0.541;exitY=0.954;exitDx=0;exitDy=0;exitPerimeter=0;" parent="1" source="YP4Gqv1PY-A-oXqR-h6G-52" target="YP4Gqv1PY-A-oXqR-h6G-113" edge="1">
          <mxGeometry relative="1" as="geometry">
            <mxPoint x="1335.71" y="1090" as="sourcePoint" />
            <mxPoint x="1335.71" y="1120" as="targetPoint" />
          </mxGeometry>
        </mxCell>
        <mxCell id="YP4Gqv1PY-A-oXqR-h6G-115" value="" style="endArrow=none;html=1;rounded=0;exitX=0.454;exitY=0.962;exitDx=0;exitDy=0;exitPerimeter=0;" parent="1" source="YP4Gqv1PY-A-oXqR-h6G-52" edge="1">
          <mxGeometry relative="1" as="geometry">
            <mxPoint x="1331.71" y="1090" as="sourcePoint" />
            <mxPoint x="1332" y="1130" as="targetPoint" />
          </mxGeometry>
        </mxCell>
        <mxCell id="YP4Gqv1PY-A-oXqR-h6G-116" value="" style="endArrow=none;html=1;rounded=0;entryX=0.5;entryY=1;entryDx=0;entryDy=0;" parent="1" target="YP4Gqv1PY-A-oXqR-h6G-117" edge="1">
          <mxGeometry relative="1" as="geometry">
            <mxPoint x="1186" y="1090" as="sourcePoint" />
            <mxPoint x="1553" y="870" as="targetPoint" />
            <Array as="points" />
          </mxGeometry>
        </mxCell>
        <mxCell id="YP4Gqv1PY-A-oXqR-h6G-117" value="tem" style="shape=rhombus;perimeter=rhombusPerimeter;whiteSpace=wrap;html=1;align=center;" parent="1" vertex="1">
          <mxGeometry x="1144.5" y="850" width="80" height="40" as="geometry" />
        </mxCell>
        <mxCell id="YP4Gqv1PY-A-oXqR-h6G-118" value="Launch" style="rounded=1;arcSize=10;whiteSpace=wrap;html=1;align=center;" parent="1" vertex="1">
          <mxGeometry x="1114" y="1310" width="120" height="40" as="geometry" />
        </mxCell>
        <mxCell id="YP4Gqv1PY-A-oXqR-h6G-119" value="" style="endArrow=none;html=1;rounded=0;entryX=1;entryY=0.5;entryDx=0;entryDy=0;exitX=1;exitY=0.5;exitDx=0;exitDy=0;" parent="1" source="YP4Gqv1PY-A-oXqR-h6G-16" target="YP4Gqv1PY-A-oXqR-h6G-5" edge="1">
          <mxGeometry relative="1" as="geometry">
            <mxPoint x="1757.5" y="1194.29" as="sourcePoint" />
            <mxPoint x="1837.5" y="1025" as="targetPoint" />
            <Array as="points">
              <mxPoint x="1838" y="1248" />
              <mxPoint x="1837.5" y="1035" />
            </Array>
          </mxGeometry>
        </mxCell>
        <mxCell id="YP4Gqv1PY-A-oXqR-h6G-120" value="1" style="resizable=0;html=1;whiteSpace=wrap;align=right;verticalAlign=bottom;" parent="YP4Gqv1PY-A-oXqR-h6G-119" connectable="0" vertex="1">
          <mxGeometry x="1" relative="1" as="geometry">
            <mxPoint x="10" as="offset" />
          </mxGeometry>
        </mxCell>
        <mxCell id="YP4Gqv1PY-A-oXqR-h6G-121" value="supervisor" style="shape=rhombus;perimeter=rhombusPerimeter;whiteSpace=wrap;html=1;align=center;" parent="1" vertex="1">
          <mxGeometry x="1799.5" y="1076" width="75" height="56" as="geometry" />
        </mxCell>
        <mxCell id="YP4Gqv1PY-A-oXqR-h6G-122" value="" style="endArrow=none;html=1;rounded=0;exitX=0.5;exitY=0;exitDx=0;exitDy=0;entryX=0;entryY=0.5;entryDx=0;entryDy=0;" parent="1" source="YP4Gqv1PY-A-oXqR-h6G-1" target="YP4Gqv1PY-A-oXqR-h6G-57" edge="1">
          <mxGeometry relative="1" as="geometry">
            <mxPoint x="708.5" y="1348" as="sourcePoint" />
            <mxPoint x="868.5" y="1348" as="targetPoint" />
            <Array as="points">
              <mxPoint x="1093" y="860" />
              <mxPoint x="623" y="860" />
              <mxPoint x="623" y="1410" />
            </Array>
          </mxGeometry>
        </mxCell>
        <mxCell id="YP4Gqv1PY-A-oXqR-h6G-123" value="N" style="resizable=0;html=1;whiteSpace=wrap;align=right;verticalAlign=bottom;" parent="YP4Gqv1PY-A-oXqR-h6G-122" connectable="0" vertex="1">
          <mxGeometry x="1" relative="1" as="geometry">
            <mxPoint y="60" as="offset" />
          </mxGeometry>
        </mxCell>
        <mxCell id="YP4Gqv1PY-A-oXqR-h6G-124" value="1" style="resizable=0;html=1;whiteSpace=wrap;align=right;verticalAlign=bottom;" parent="1" connectable="0" vertex="1">
          <mxGeometry x="1008.001547641824" y="1127" as="geometry">
            <mxPoint x="96" y="-198" as="offset" />
          </mxGeometry>
        </mxCell>
        <mxCell id="YP4Gqv1PY-A-oXqR-h6G-125" value="belongs" style="shape=rhombus;perimeter=rhombusPerimeter;whiteSpace=wrap;html=1;align=center;" parent="1" vertex="1">
          <mxGeometry x="590" y="1045" width="65" height="50" as="geometry" />
        </mxCell>
        <mxCell id="YP4Gqv1PY-A-oXqR-h6G-126" value="Name" style="ellipse;whiteSpace=wrap;html=1;align=center;" parent="1" vertex="1">
          <mxGeometry x="974.5" y="870" width="60" height="30" as="geometry" />
        </mxCell>
        <mxCell id="YP4Gqv1PY-A-oXqR-h6G-127" value="Country" style="ellipse;whiteSpace=wrap;html=1;align=center;" parent="1" vertex="1">
          <mxGeometry x="1033" y="870" width="60" height="30" as="geometry" />
        </mxCell>
        <mxCell id="YP4Gqv1PY-A-oXqR-h6G-128" value="Comp_ID" style="ellipse;whiteSpace=wrap;html=1;align=center;fontStyle=4;" parent="1" vertex="1">
          <mxGeometry x="914.5" y="870" width="60" height="30" as="geometry" />
        </mxCell>
        <mxCell id="YP4Gqv1PY-A-oXqR-h6G-129" value="" style="endArrow=none;html=1;rounded=0;exitX=0.5;exitY=1;exitDx=0;exitDy=0;entryX=0;entryY=0;entryDx=0;entryDy=0;" parent="1" source="YP4Gqv1PY-A-oXqR-h6G-128" target="YP4Gqv1PY-A-oXqR-h6G-1" edge="1">
          <mxGeometry relative="1" as="geometry">
            <mxPoint x="933" y="820" as="sourcePoint" />
            <mxPoint x="1093" y="820" as="targetPoint" />
          </mxGeometry>
        </mxCell>
        <mxCell id="YP4Gqv1PY-A-oXqR-h6G-130" value="" style="endArrow=none;html=1;rounded=0;entryX=0.5;entryY=1;entryDx=0;entryDy=0;exitX=0.114;exitY=-0.02;exitDx=0;exitDy=0;exitPerimeter=0;" parent="1" source="YP4Gqv1PY-A-oXqR-h6G-1" target="YP4Gqv1PY-A-oXqR-h6G-126" edge="1">
          <mxGeometry relative="1" as="geometry">
            <mxPoint x="933" y="820" as="sourcePoint" />
            <mxPoint x="1093" y="820" as="targetPoint" />
          </mxGeometry>
        </mxCell>
        <mxCell id="YP4Gqv1PY-A-oXqR-h6G-131" value="" style="endArrow=none;html=1;rounded=0;entryX=0.5;entryY=1;entryDx=0;entryDy=0;" parent="1" target="YP4Gqv1PY-A-oXqR-h6G-127" edge="1">
          <mxGeometry relative="1" as="geometry">
            <mxPoint x="1063" y="930" as="sourcePoint" />
            <mxPoint x="1015" y="900" as="targetPoint" />
          </mxGeometry>
        </mxCell>
        <mxCell id="YP4Gqv1PY-A-oXqR-h6G-132" value="Gov" style="ellipse;whiteSpace=wrap;html=1;align=center;" parent="1" vertex="1">
          <mxGeometry x="984" y="1157.5" width="60" height="30" as="geometry" />
        </mxCell>
        <mxCell id="YP4Gqv1PY-A-oXqR-h6G-133" value="" style="endArrow=none;html=1;rounded=0;exitX=0.5;exitY=0;exitDx=0;exitDy=0;entryX=0.5;entryY=1;entryDx=0;entryDy=0;" parent="1" source="YP4Gqv1PY-A-oXqR-h6G-132" target="YP4Gqv1PY-A-oXqR-h6G-3" edge="1">
          <mxGeometry relative="1" as="geometry">
            <mxPoint x="953" y="900" as="sourcePoint" />
            <mxPoint x="1044" y="940" as="targetPoint" />
          </mxGeometry>
        </mxCell>
        <mxCell id="YP4Gqv1PY-A-oXqR-h6G-134" value="tem" style="shape=rhombus;perimeter=rhombusPerimeter;whiteSpace=wrap;html=1;align=center;" parent="1" vertex="1">
          <mxGeometry x="1194" y="930" width="50" height="40" as="geometry" />
        </mxCell>
        <mxCell id="YP4Gqv1PY-A-oXqR-h6G-135" value="Prog_ID" style="ellipse;whiteSpace=wrap;html=1;align=center;fontStyle=4;" parent="1" vertex="1">
          <mxGeometry x="1274" y="872.5" width="60" height="30" as="geometry" />
        </mxCell>
        <mxCell id="YP4Gqv1PY-A-oXqR-h6G-136" value="Name" style="ellipse;whiteSpace=wrap;html=1;align=center;" parent="1" vertex="1">
          <mxGeometry x="1334" y="872.5" width="60" height="30" as="geometry" />
        </mxCell>
        <mxCell id="YP4Gqv1PY-A-oXqR-h6G-137" value="Desc" style="ellipse;whiteSpace=wrap;html=1;align=center;" parent="1" vertex="1">
          <mxGeometry x="1394" y="872.5" width="60" height="30" as="geometry" />
        </mxCell>
        <mxCell id="YP4Gqv1PY-A-oXqR-h6G-138" value="" style="endArrow=none;html=1;rounded=0;exitX=0.25;exitY=0;exitDx=0;exitDy=0;entryX=0.5;entryY=1;entryDx=0;entryDy=0;" parent="1" source="YP4Gqv1PY-A-oXqR-h6G-14" target="YP4Gqv1PY-A-oXqR-h6G-135" edge="1">
          <mxGeometry relative="1" as="geometry">
            <mxPoint x="1024" y="1168" as="sourcePoint" />
            <mxPoint x="1024" y="1140" as="targetPoint" />
          </mxGeometry>
        </mxCell>
        <mxCell id="YP4Gqv1PY-A-oXqR-h6G-139" value="" style="endArrow=none;html=1;rounded=0;exitX=0.5;exitY=0;exitDx=0;exitDy=0;entryX=0.5;entryY=1;entryDx=0;entryDy=0;" parent="1" source="YP4Gqv1PY-A-oXqR-h6G-14" target="YP4Gqv1PY-A-oXqR-h6G-136" edge="1">
          <mxGeometry relative="1" as="geometry">
            <mxPoint x="1314" y="940" as="sourcePoint" />
            <mxPoint x="1314" y="913" as="targetPoint" />
          </mxGeometry>
        </mxCell>
        <mxCell id="YP4Gqv1PY-A-oXqR-h6G-140" value="" style="endArrow=none;html=1;rounded=0;exitX=0.75;exitY=0;exitDx=0;exitDy=0;entryX=0.5;entryY=1;entryDx=0;entryDy=0;" parent="1" source="YP4Gqv1PY-A-oXqR-h6G-14" target="YP4Gqv1PY-A-oXqR-h6G-137" edge="1">
          <mxGeometry relative="1" as="geometry">
            <mxPoint x="1344" y="940" as="sourcePoint" />
            <mxPoint x="1374" y="913" as="targetPoint" />
          </mxGeometry>
        </mxCell>
        <mxCell id="YP4Gqv1PY-A-oXqR-h6G-141" value="Name" style="ellipse;whiteSpace=wrap;html=1;align=center;" parent="1" vertex="1">
          <mxGeometry x="1253" y="980" width="60" height="30" as="geometry" />
        </mxCell>
        <mxCell id="YP4Gqv1PY-A-oXqR-h6G-142" value="Desc" style="ellipse;whiteSpace=wrap;html=1;align=center;" parent="1" vertex="1">
          <mxGeometry x="1348" y="980" width="60" height="30" as="geometry" />
        </mxCell>
        <mxCell id="YP4Gqv1PY-A-oXqR-h6G-143" value="Beg_Date" style="ellipse;whiteSpace=wrap;html=1;align=center;" parent="1" vertex="1">
          <mxGeometry x="1410.5" y="981" width="60" height="30" as="geometry" />
        </mxCell>
        <mxCell id="YP4Gqv1PY-A-oXqR-h6G-144" value="End_Date" style="ellipse;whiteSpace=wrap;html=1;align=center;" parent="1" vertex="1">
          <mxGeometry x="1414.5" y="1011" width="60" height="30" as="geometry" />
        </mxCell>
        <mxCell id="YP4Gqv1PY-A-oXqR-h6G-145" value="" style="endArrow=none;html=1;rounded=0;exitX=0.75;exitY=0;exitDx=0;exitDy=0;entryX=0.5;entryY=1;entryDx=0;entryDy=0;" parent="1" source="YP4Gqv1PY-A-oXqR-h6G-113" target="YP4Gqv1PY-A-oXqR-h6G-142" edge="1">
          <mxGeometry relative="1" as="geometry">
            <mxPoint x="1374" y="940" as="sourcePoint" />
            <mxPoint x="1519" y="918" as="targetPoint" />
          </mxGeometry>
        </mxCell>
        <mxCell id="YP4Gqv1PY-A-oXqR-h6G-146" value="" style="endArrow=none;html=1;rounded=0;entryX=0;entryY=1;entryDx=0;entryDy=0;" parent="1" target="YP4Gqv1PY-A-oXqR-h6G-143" edge="1">
          <mxGeometry relative="1" as="geometry">
            <mxPoint x="1373" y="1130" as="sourcePoint" />
            <mxPoint x="1388" y="1020" as="targetPoint" />
          </mxGeometry>
        </mxCell>
        <mxCell id="YP4Gqv1PY-A-oXqR-h6G-147" value="" style="endArrow=none;html=1;rounded=0;entryX=0.5;entryY=1;entryDx=0;entryDy=0;exitX=1;exitY=0;exitDx=0;exitDy=0;" parent="1" source="YP4Gqv1PY-A-oXqR-h6G-113" target="YP4Gqv1PY-A-oXqR-h6G-144" edge="1">
          <mxGeometry relative="1" as="geometry">
            <mxPoint x="1383" y="1140" as="sourcePoint" />
            <mxPoint x="1429" y="1017" as="targetPoint" />
          </mxGeometry>
        </mxCell>
        <mxCell id="YP4Gqv1PY-A-oXqR-h6G-148" value="" style="endArrow=none;html=1;rounded=0;entryX=0.5;entryY=1;entryDx=0;entryDy=0;exitX=0.368;exitY=0.008;exitDx=0;exitDy=0;exitPerimeter=0;" parent="1" source="YP4Gqv1PY-A-oXqR-h6G-113" target="YP4Gqv1PY-A-oXqR-h6G-141" edge="1">
          <mxGeometry relative="1" as="geometry">
            <mxPoint x="1403" y="1140" as="sourcePoint" />
            <mxPoint x="1454" y="1051" as="targetPoint" />
          </mxGeometry>
        </mxCell>
        <mxCell id="YP4Gqv1PY-A-oXqR-h6G-149" value="" style="endArrow=none;html=1;rounded=0;entryX=1;entryY=1;entryDx=0;entryDy=0;exitX=0.25;exitY=0;exitDx=0;exitDy=0;" parent="1" source="YP4Gqv1PY-A-oXqR-h6G-113" target="YP4Gqv1PY-A-oXqR-h6G-47" edge="1">
          <mxGeometry relative="1" as="geometry">
            <mxPoint x="1327" y="1140" as="sourcePoint" />
            <mxPoint x="1293" y="1020" as="targetPoint" />
          </mxGeometry>
        </mxCell>
        <mxCell id="YP4Gqv1PY-A-oXqR-h6G-150" value="" style="endArrow=none;html=1;rounded=0;entryX=0.5;entryY=1;entryDx=0;entryDy=0;exitX=0;exitY=0;exitDx=0;exitDy=0;" parent="1" source="YP4Gqv1PY-A-oXqR-h6G-113" target="YP4Gqv1PY-A-oXqR-h6G-48" edge="1">
          <mxGeometry relative="1" as="geometry">
            <mxPoint x="1313" y="1140" as="sourcePoint" />
            <mxPoint x="1254" y="1036" as="targetPoint" />
          </mxGeometry>
        </mxCell>
        <mxCell id="YP4Gqv1PY-A-oXqR-h6G-151" value="tem" style="shape=rhombus;double=1;perimeter=rhombusPerimeter;whiteSpace=wrap;html=1;align=center;rotation=0;" parent="1" vertex="1">
          <mxGeometry x="1508.5" y="1130" width="54.5" height="40" as="geometry" />
        </mxCell>
        <mxCell id="YP4Gqv1PY-A-oXqR-h6G-152" value="&lt;span style=&quot;border-bottom: 1px dotted&quot;&gt;Event_ID&lt;/span&gt;" style="ellipse;whiteSpace=wrap;html=1;align=center;" parent="1" vertex="1">
          <mxGeometry x="1440" y="929.3699999999999" width="64.5" height="30.63" as="geometry" />
        </mxCell>
        <mxCell id="YP4Gqv1PY-A-oXqR-h6G-153" value="" style="endArrow=none;html=1;rounded=0;exitX=0.5;exitY=1;exitDx=0;exitDy=0;entryX=0.25;entryY=0;entryDx=0;entryDy=0;" parent="1" source="YP4Gqv1PY-A-oXqR-h6G-152" target="YP4Gqv1PY-A-oXqR-h6G-15" edge="1">
          <mxGeometry relative="1" as="geometry">
            <mxPoint x="1483" y="1090" as="sourcePoint" />
            <mxPoint x="1643" y="1090" as="targetPoint" />
          </mxGeometry>
        </mxCell>
        <mxCell id="YP4Gqv1PY-A-oXqR-h6G-154" value="Name" style="ellipse;whiteSpace=wrap;html=1;align=center;" parent="1" vertex="1">
          <mxGeometry x="1505.75" y="929.3699999999999" width="60" height="30" as="geometry" />
        </mxCell>
        <mxCell id="YP4Gqv1PY-A-oXqR-h6G-155" value="Date" style="ellipse;whiteSpace=wrap;html=1;align=center;" parent="1" vertex="1">
          <mxGeometry x="1565.75" y="929.3699999999999" width="60" height="30" as="geometry" />
        </mxCell>
        <mxCell id="YP4Gqv1PY-A-oXqR-h6G-156" value="Status" style="ellipse;whiteSpace=wrap;html=1;align=center;" parent="1" vertex="1">
          <mxGeometry x="1577.5" y="960" width="60" height="30" as="geometry" />
        </mxCell>
        <mxCell id="YP4Gqv1PY-A-oXqR-h6G-157" value="Event" style="rounded=1;arcSize=10;whiteSpace=wrap;html=1;align=center;" parent="1" vertex="1">
          <mxGeometry x="1485.25" y="1013.5" width="106.5" height="35" as="geometry" />
        </mxCell>
        <mxCell id="YP4Gqv1PY-A-oXqR-h6G-158" value="" style="endArrow=none;html=1;rounded=0;exitX=0.5;exitY=1;exitDx=0;exitDy=0;entryX=0.5;entryY=0;entryDx=0;entryDy=0;" parent="1" source="YP4Gqv1PY-A-oXqR-h6G-154" target="YP4Gqv1PY-A-oXqR-h6G-15" edge="1">
          <mxGeometry relative="1" as="geometry">
            <mxPoint x="1482" y="970" as="sourcePoint" />
            <mxPoint x="1519" y="1021" as="targetPoint" />
          </mxGeometry>
        </mxCell>
        <mxCell id="YP4Gqv1PY-A-oXqR-h6G-159" value="" style="endArrow=none;html=1;rounded=0;exitX=0;exitY=1;exitDx=0;exitDy=0;" parent="1" source="YP4Gqv1PY-A-oXqR-h6G-155" edge="1">
          <mxGeometry relative="1" as="geometry">
            <mxPoint x="1546" y="969" as="sourcePoint" />
            <mxPoint x="1553" y="1010" as="targetPoint" />
          </mxGeometry>
        </mxCell>
        <mxCell id="YP4Gqv1PY-A-oXqR-h6G-160" value="" style="endArrow=none;html=1;rounded=0;exitX=0;exitY=0.5;exitDx=0;exitDy=0;" parent="1" source="YP4Gqv1PY-A-oXqR-h6G-156" edge="1">
          <mxGeometry relative="1" as="geometry">
            <mxPoint x="1585" y="965" as="sourcePoint" />
            <mxPoint x="1563" y="1010" as="targetPoint" />
          </mxGeometry>
        </mxCell>
        <mxCell id="YP4Gqv1PY-A-oXqR-h6G-161" value="LaunchV_ID" style="ellipse;whiteSpace=wrap;html=1;align=center;fontStyle=4;" parent="1" vertex="1">
          <mxGeometry x="868" y="1260" width="74.5" height="30" as="geometry" />
        </mxCell>
        <mxCell id="YP4Gqv1PY-A-oXqR-h6G-162" value="LaunchCost" style="ellipse;whiteSpace=wrap;html=1;align=center;" parent="1" vertex="1">
          <mxGeometry x="942.5" y="1260" width="70" height="30" as="geometry" />
        </mxCell>
        <mxCell id="YP4Gqv1PY-A-oXqR-h6G-163" value="DevCost" style="ellipse;whiteSpace=wrap;html=1;align=center;" parent="1" vertex="1">
          <mxGeometry x="1013" y="1260" width="70" height="30" as="geometry" />
        </mxCell>
        <mxCell id="YP4Gqv1PY-A-oXqR-h6G-164" value="Fuel" style="ellipse;whiteSpace=wrap;html=1;align=center;" parent="1" vertex="1">
          <mxGeometry x="722.5" y="1273.75" width="70" height="30" as="geometry" />
        </mxCell>
        <mxCell id="YP4Gqv1PY-A-oXqR-h6G-165" value="Type" style="ellipse;whiteSpace=wrap;html=1;align=center;" parent="1" vertex="1">
          <mxGeometry x="722.5" y="1303.75" width="70" height="30" as="geometry" />
        </mxCell>
        <mxCell id="YP4Gqv1PY-A-oXqR-h6G-166" value="Range" style="ellipse;whiteSpace=wrap;html=1;align=center;" parent="1" vertex="1">
          <mxGeometry x="722.5" y="1333.75" width="70" height="30" as="geometry" />
        </mxCell>
        <mxCell id="YP4Gqv1PY-A-oXqR-h6G-167" value="" style="endArrow=none;html=1;rounded=0;exitX=0;exitY=0.5;exitDx=0;exitDy=0;entryX=1;entryY=0.5;entryDx=0;entryDy=0;" parent="1" source="YP4Gqv1PY-A-oXqR-h6G-56" target="YP4Gqv1PY-A-oXqR-h6G-164" edge="1">
          <mxGeometry relative="1" as="geometry">
            <mxPoint x="1023.5" y="1228" as="sourcePoint" />
            <mxPoint x="1023.5" y="1200" as="targetPoint" />
          </mxGeometry>
        </mxCell>
        <mxCell id="YP4Gqv1PY-A-oXqR-h6G-168" value="" style="endArrow=none;html=1;rounded=0;exitX=0;exitY=0.75;exitDx=0;exitDy=0;entryX=1;entryY=0.5;entryDx=0;entryDy=0;" parent="1" source="YP4Gqv1PY-A-oXqR-h6G-56" target="YP4Gqv1PY-A-oXqR-h6G-165" edge="1">
          <mxGeometry relative="1" as="geometry">
            <mxPoint x="877.5" y="1340" as="sourcePoint" />
            <mxPoint x="802.5" y="1299" as="targetPoint" />
          </mxGeometry>
        </mxCell>
        <mxCell id="YP4Gqv1PY-A-oXqR-h6G-169" value="" style="endArrow=none;html=1;rounded=0;exitX=-0.002;exitY=0.873;exitDx=0;exitDy=0;entryX=1;entryY=0.5;entryDx=0;entryDy=0;exitPerimeter=0;" parent="1" source="YP4Gqv1PY-A-oXqR-h6G-56" target="YP4Gqv1PY-A-oXqR-h6G-166" edge="1">
          <mxGeometry relative="1" as="geometry">
            <mxPoint x="877.5" y="1350" as="sourcePoint" />
            <mxPoint x="804.5" y="1325" as="targetPoint" />
          </mxGeometry>
        </mxCell>
        <mxCell id="YP4Gqv1PY-A-oXqR-h6G-170" value="" style="endArrow=none;html=1;rounded=0;exitX=0.25;exitY=0;exitDx=0;exitDy=0;entryX=0.5;entryY=1;entryDx=0;entryDy=0;" parent="1" source="YP4Gqv1PY-A-oXqR-h6G-56" target="YP4Gqv1PY-A-oXqR-h6G-161" edge="1">
          <mxGeometry relative="1" as="geometry">
            <mxPoint x="877.5" y="1350" as="sourcePoint" />
            <mxPoint x="802.5" y="1329" as="targetPoint" />
          </mxGeometry>
        </mxCell>
        <mxCell id="YP4Gqv1PY-A-oXqR-h6G-171" value="" style="endArrow=none;html=1;rounded=0;exitX=0.5;exitY=0;exitDx=0;exitDy=0;entryX=0.5;entryY=1;entryDx=0;entryDy=0;" parent="1" source="YP4Gqv1PY-A-oXqR-h6G-56" target="YP4Gqv1PY-A-oXqR-h6G-162" edge="1">
          <mxGeometry relative="1" as="geometry">
            <mxPoint x="907.5" y="1320" as="sourcePoint" />
            <mxPoint x="915.5" y="1300" as="targetPoint" />
          </mxGeometry>
        </mxCell>
        <mxCell id="YP4Gqv1PY-A-oXqR-h6G-172" value="" style="endArrow=none;html=1;rounded=0;exitX=0.75;exitY=0;exitDx=0;exitDy=0;entryX=0.5;entryY=1;entryDx=0;entryDy=0;" parent="1" source="YP4Gqv1PY-A-oXqR-h6G-56" target="YP4Gqv1PY-A-oXqR-h6G-163" edge="1">
          <mxGeometry relative="1" as="geometry">
            <mxPoint x="937.5" y="1320" as="sourcePoint" />
            <mxPoint x="987.5" y="1300" as="targetPoint" />
          </mxGeometry>
        </mxCell>
        <mxCell id="YP4Gqv1PY-A-oXqR-h6G-173" value="LaunchS_ID" style="ellipse;whiteSpace=wrap;html=1;align=center;fontStyle=4;" parent="1" vertex="1">
          <mxGeometry x="813.75" y="1480" width="74.5" height="30" as="geometry" />
        </mxCell>
        <mxCell id="YP4Gqv1PY-A-oXqR-h6G-174" value="Location" style="ellipse;whiteSpace=wrap;html=1;align=center;" parent="1" vertex="1">
          <mxGeometry x="888.25" y="1480" width="70" height="30" as="geometry" />
        </mxCell>
        <mxCell id="YP4Gqv1PY-A-oXqR-h6G-175" value="Name" style="ellipse;whiteSpace=wrap;html=1;align=center;" parent="1" vertex="1">
          <mxGeometry x="958" y="1480" width="70" height="30" as="geometry" />
        </mxCell>
        <mxCell id="YP4Gqv1PY-A-oXqR-h6G-176" value="" style="endArrow=none;html=1;rounded=0;exitX=0.5;exitY=0;exitDx=0;exitDy=0;entryX=0.25;entryY=1;entryDx=0;entryDy=0;" parent="1" source="YP4Gqv1PY-A-oXqR-h6G-173" target="YP4Gqv1PY-A-oXqR-h6G-57" edge="1">
          <mxGeometry relative="1" as="geometry">
            <mxPoint x="878.5" y="1340" as="sourcePoint" />
            <mxPoint x="802.5" y="1299" as="targetPoint" />
          </mxGeometry>
        </mxCell>
        <mxCell id="YP4Gqv1PY-A-oXqR-h6G-177" value="" style="endArrow=none;html=1;rounded=0;exitX=0.5;exitY=0;exitDx=0;exitDy=0;entryX=0.5;entryY=1;entryDx=0;entryDy=0;" parent="1" source="YP4Gqv1PY-A-oXqR-h6G-174" target="YP4Gqv1PY-A-oXqR-h6G-57" edge="1">
          <mxGeometry relative="1" as="geometry">
            <mxPoint x="861.5" y="1490" as="sourcePoint" />
            <mxPoint x="908.5" y="1440" as="targetPoint" />
          </mxGeometry>
        </mxCell>
        <mxCell id="YP4Gqv1PY-A-oXqR-h6G-178" value="" style="endArrow=none;html=1;rounded=0;exitX=0.5;exitY=0;exitDx=0;exitDy=0;entryX=0.75;entryY=1;entryDx=0;entryDy=0;" parent="1" source="YP4Gqv1PY-A-oXqR-h6G-175" target="YP4Gqv1PY-A-oXqR-h6G-57" edge="1">
          <mxGeometry relative="1" as="geometry">
            <mxPoint x="933.5" y="1490" as="sourcePoint" />
            <mxPoint x="938.5" y="1440" as="targetPoint" />
          </mxGeometry>
        </mxCell>
        <mxCell id="YP4Gqv1PY-A-oXqR-h6G-179" value="Veh_ID" style="ellipse;whiteSpace=wrap;html=1;align=center;fontStyle=4;" parent="1" vertex="1">
          <mxGeometry x="733" y="950" width="64.5" height="30" as="geometry" />
        </mxCell>
        <mxCell id="YP4Gqv1PY-A-oXqR-h6G-180" value="Load" style="ellipse;whiteSpace=wrap;html=1;align=center;" parent="1" vertex="1">
          <mxGeometry x="722.5" y="1363.75" width="70" height="30" as="geometry" />
        </mxCell>
        <mxCell id="YP4Gqv1PY-A-oXqR-h6G-181" value="" style="endArrow=none;html=1;rounded=0;entryX=1;entryY=0.5;entryDx=0;entryDy=0;" parent="1" target="YP4Gqv1PY-A-oXqR-h6G-180" edge="1">
          <mxGeometry relative="1" as="geometry">
            <mxPoint x="872.5" y="1350" as="sourcePoint" />
            <mxPoint x="802.5" y="1359" as="targetPoint" />
          </mxGeometry>
        </mxCell>
        <mxCell id="YP4Gqv1PY-A-oXqR-h6G-182" value="Name" style="ellipse;whiteSpace=wrap;html=1;align=center;" parent="1" vertex="1">
          <mxGeometry x="683" y="970" width="60" height="30" as="geometry" />
        </mxCell>
        <mxCell id="YP4Gqv1PY-A-oXqR-h6G-183" value="Size" style="ellipse;whiteSpace=wrap;html=1;align=center;" parent="1" vertex="1">
          <mxGeometry x="673" y="1000" width="60" height="30" as="geometry" />
        </mxCell>
        <mxCell id="YP4Gqv1PY-A-oXqR-h6G-184" value="Mass" style="ellipse;whiteSpace=wrap;html=1;align=center;" parent="1" vertex="1">
          <mxGeometry x="663" y="1030" width="60" height="30" as="geometry" />
        </mxCell>
        <mxCell id="YP4Gqv1PY-A-oXqR-h6G-185" value="Manufacturer" style="ellipse;whiteSpace=wrap;html=1;align=center;" parent="1" vertex="1">
          <mxGeometry x="854.5" y="960" width="88.5" height="30" as="geometry" />
        </mxCell>
        <mxCell id="YP4Gqv1PY-A-oXqR-h6G-186" value="" style="endArrow=none;html=1;rounded=0;entryX=0.5;entryY=1;entryDx=0;entryDy=0;" parent="1" source="YP4Gqv1PY-A-oXqR-h6G-75" target="YP4Gqv1PY-A-oXqR-h6G-179" edge="1">
          <mxGeometry relative="1" as="geometry">
            <mxPoint x="879" y="1280" as="sourcePoint" />
            <mxPoint x="803" y="1239" as="targetPoint" />
          </mxGeometry>
        </mxCell>
        <mxCell id="YP4Gqv1PY-A-oXqR-h6G-187" value="" style="endArrow=none;html=1;rounded=0;entryX=1;entryY=0.5;entryDx=0;entryDy=0;" parent="1" target="YP4Gqv1PY-A-oXqR-h6G-182" edge="1">
          <mxGeometry relative="1" as="geometry">
            <mxPoint x="813" y="1090" as="sourcePoint" />
            <mxPoint x="775" y="990" as="targetPoint" />
          </mxGeometry>
        </mxCell>
        <mxCell id="YP4Gqv1PY-A-oXqR-h6G-188" value="" style="endArrow=none;html=1;rounded=0;entryX=1;entryY=0.5;entryDx=0;entryDy=0;exitX=0.25;exitY=0;exitDx=0;exitDy=0;" parent="1" source="YP4Gqv1PY-A-oXqR-h6G-75" target="YP4Gqv1PY-A-oXqR-h6G-183" edge="1">
          <mxGeometry relative="1" as="geometry">
            <mxPoint x="823" y="1100" as="sourcePoint" />
            <mxPoint x="753" y="995" as="targetPoint" />
          </mxGeometry>
        </mxCell>
        <mxCell id="YP4Gqv1PY-A-oXqR-h6G-189" value="" style="endArrow=none;html=1;rounded=0;entryX=1;entryY=0.5;entryDx=0;entryDy=0;exitX=0.158;exitY=0.01;exitDx=0;exitDy=0;exitPerimeter=0;" parent="1" source="YP4Gqv1PY-A-oXqR-h6G-75" target="YP4Gqv1PY-A-oXqR-h6G-184" edge="1">
          <mxGeometry relative="1" as="geometry">
            <mxPoint x="813" y="1101" as="sourcePoint" />
            <mxPoint x="743" y="1025" as="targetPoint" />
          </mxGeometry>
        </mxCell>
        <mxCell id="YP4Gqv1PY-A-oXqR-h6G-190" value="" style="endArrow=none;html=1;rounded=0;entryX=0.5;entryY=1;entryDx=0;entryDy=0;exitX=0.75;exitY=0;exitDx=0;exitDy=0;" parent="1" source="YP4Gqv1PY-A-oXqR-h6G-75" target="YP4Gqv1PY-A-oXqR-h6G-185" edge="1">
          <mxGeometry relative="1" as="geometry">
            <mxPoint x="802" y="1101" as="sourcePoint" />
            <mxPoint x="733" y="1055" as="targetPoint" />
          </mxGeometry>
        </mxCell>
        <mxCell id="YP4Gqv1PY-A-oXqR-h6G-191" value="Per_ID" style="ellipse;whiteSpace=wrap;html=1;align=center;fontStyle=4;" parent="1" vertex="1">
          <mxGeometry x="1574" y="790" width="60" height="30" as="geometry" />
        </mxCell>
        <mxCell id="YP4Gqv1PY-A-oXqR-h6G-192" value="Fname" style="ellipse;whiteSpace=wrap;html=1;align=center;" parent="1" vertex="1">
          <mxGeometry x="1634" y="770" width="60" height="30" as="geometry" />
        </mxCell>
        <mxCell id="YP4Gqv1PY-A-oXqR-h6G-193" value="Lname" style="ellipse;whiteSpace=wrap;html=1;align=center;" parent="1" vertex="1">
          <mxGeometry x="1694" y="770" width="60" height="30" as="geometry" />
        </mxCell>
        <mxCell id="YP4Gqv1PY-A-oXqR-h6G-194" value="Birth" style="ellipse;whiteSpace=wrap;html=1;align=center;" parent="1" vertex="1">
          <mxGeometry x="1754" y="770" width="60" height="30" as="geometry" />
        </mxCell>
        <mxCell id="YP4Gqv1PY-A-oXqR-h6G-195" value="Nationality" style="ellipse;whiteSpace=wrap;html=1;align=center;" parent="1" vertex="1">
          <mxGeometry x="1807" y="790" width="66" height="30" as="geometry" />
        </mxCell>
        <mxCell id="YP4Gqv1PY-A-oXqR-h6G-196" value="" style="endArrow=none;html=1;rounded=0;exitX=0.5;exitY=1;exitDx=0;exitDy=0;entryX=0.25;entryY=0;entryDx=0;entryDy=0;" parent="1" source="YP4Gqv1PY-A-oXqR-h6G-191" target="YP4Gqv1PY-A-oXqR-h6G-4" edge="1">
          <mxGeometry relative="1" as="geometry">
            <mxPoint x="1584" y="965" as="sourcePoint" />
            <mxPoint x="1563" y="1020" as="targetPoint" />
          </mxGeometry>
        </mxCell>
        <mxCell id="YP4Gqv1PY-A-oXqR-h6G-197" value="" style="endArrow=none;html=1;rounded=0;exitX=0.5;exitY=1;exitDx=0;exitDy=0;entryX=0.362;entryY=0.031;entryDx=0;entryDy=0;entryPerimeter=0;" parent="1" source="YP4Gqv1PY-A-oXqR-h6G-192" target="YP4Gqv1PY-A-oXqR-h6G-4" edge="1">
          <mxGeometry relative="1" as="geometry">
            <mxPoint x="1614" y="830" as="sourcePoint" />
            <mxPoint x="1683" y="850" as="targetPoint" />
          </mxGeometry>
        </mxCell>
        <mxCell id="YP4Gqv1PY-A-oXqR-h6G-198" value="" style="endArrow=none;html=1;rounded=0;exitX=0.5;exitY=1;exitDx=0;exitDy=0;entryX=0.5;entryY=0;entryDx=0;entryDy=0;" parent="1" source="YP4Gqv1PY-A-oXqR-h6G-193" target="YP4Gqv1PY-A-oXqR-h6G-4" edge="1">
          <mxGeometry relative="1" as="geometry">
            <mxPoint x="1674" y="810" as="sourcePoint" />
            <mxPoint x="1691" y="866" as="targetPoint" />
          </mxGeometry>
        </mxCell>
        <mxCell id="YP4Gqv1PY-A-oXqR-h6G-199" value="" style="endArrow=none;html=1;rounded=0;exitX=0.5;exitY=1;exitDx=0;exitDy=0;entryX=0.689;entryY=-0.027;entryDx=0;entryDy=0;entryPerimeter=0;" parent="1" source="YP4Gqv1PY-A-oXqR-h6G-194" target="YP4Gqv1PY-A-oXqR-h6G-4" edge="1">
          <mxGeometry relative="1" as="geometry">
            <mxPoint x="1734" y="810" as="sourcePoint" />
            <mxPoint x="1708" y="865" as="targetPoint" />
          </mxGeometry>
        </mxCell>
        <mxCell id="YP4Gqv1PY-A-oXqR-h6G-200" value="" style="endArrow=none;html=1;rounded=0;exitX=0;exitY=0.5;exitDx=0;exitDy=0;entryX=0.849;entryY=-0.008;entryDx=0;entryDy=0;entryPerimeter=0;" parent="1" source="YP4Gqv1PY-A-oXqR-h6G-195" target="YP4Gqv1PY-A-oXqR-h6G-4" edge="1">
          <mxGeometry relative="1" as="geometry">
            <mxPoint x="1794" y="810" as="sourcePoint" />
            <mxPoint x="1727" y="866" as="targetPoint" />
          </mxGeometry>
        </mxCell>
        <mxCell id="YP4Gqv1PY-A-oXqR-h6G-201" value="Num_missions" style="ellipse;whiteSpace=wrap;html=1;align=center;dashed=1;" parent="1" vertex="1">
          <mxGeometry x="1758" y="980" width="85" height="30" as="geometry" />
        </mxCell>
        <mxCell id="YP4Gqv1PY-A-oXqR-h6G-202" value="" style="endArrow=none;html=1;rounded=0;exitX=0;exitY=0.5;exitDx=0;exitDy=0;entryX=0.75;entryY=0;entryDx=0;entryDy=0;" parent="1" source="YP4Gqv1PY-A-oXqR-h6G-201" target="YP4Gqv1PY-A-oXqR-h6G-5" edge="1">
          <mxGeometry relative="1" as="geometry">
            <mxPoint x="1817" y="815" as="sourcePoint" />
            <mxPoint x="1749" y="865" as="targetPoint" />
          </mxGeometry>
        </mxCell>
        <mxCell id="YP4Gqv1PY-A-oXqR-h6G-203" value="Description" style="ellipse;whiteSpace=wrap;html=1;align=center;" parent="1" vertex="1">
          <mxGeometry x="2103" y="880" width="66" height="30" as="geometry" />
        </mxCell>
        <mxCell id="YP4Gqv1PY-A-oXqR-h6G-204" value="Name" style="ellipse;whiteSpace=wrap;html=1;align=center;fontStyle=4;" parent="1" vertex="1">
          <mxGeometry x="2103" y="835" width="60" height="30" as="geometry" />
        </mxCell>
        <mxCell id="YP4Gqv1PY-A-oXqR-h6G-205" value="" style="endArrow=none;html=1;rounded=0;exitX=0;exitY=0.5;exitDx=0;exitDy=0;entryX=1;entryY=0.25;entryDx=0;entryDy=0;" parent="1" source="YP4Gqv1PY-A-oXqR-h6G-204" target="YP4Gqv1PY-A-oXqR-h6G-12" edge="1">
          <mxGeometry relative="1" as="geometry">
            <mxPoint x="2118.5" y="855" as="sourcePoint" />
            <mxPoint x="1944.5" y="785" as="targetPoint" />
          </mxGeometry>
        </mxCell>
        <mxCell id="YP4Gqv1PY-A-oXqR-h6G-206" value="" style="endArrow=none;html=1;rounded=0;entryX=1;entryY=0.5;entryDx=0;entryDy=0;" parent="1" target="YP4Gqv1PY-A-oXqR-h6G-12" edge="1">
          <mxGeometry relative="1" as="geometry">
            <mxPoint x="2103" y="890" as="sourcePoint" />
            <mxPoint x="2083.5" y="875" as="targetPoint" />
          </mxGeometry>
        </mxCell>
        <mxCell id="YP4Gqv1PY-A-oXqR-h6G-207" value="N" style="text;html=1;align=center;verticalAlign=middle;resizable=0;points=[];autosize=1;strokeColor=none;fillColor=none;" parent="1" vertex="1">
          <mxGeometry x="1754" y="1243.75" width="30" height="30" as="geometry" />
        </mxCell>
        <mxCell id="YP4Gqv1PY-A-oXqR-h6G-208" value="Statuts" style="ellipse;whiteSpace=wrap;html=1;align=center;" parent="1" vertex="1">
          <mxGeometry x="914.5" y="990" width="78.5" height="30" as="geometry" />
        </mxCell>
        <mxCell id="YP4Gqv1PY-A-oXqR-h6G-209" value="Desc" style="ellipse;whiteSpace=wrap;html=1;align=center;" parent="1" vertex="1">
          <mxGeometry x="915.5" y="1025" width="78.5" height="30" as="geometry" />
        </mxCell>
        <mxCell id="YP4Gqv1PY-A-oXqR-h6G-210" value="" style="endArrow=none;html=1;rounded=0;entryX=0;entryY=0.5;entryDx=0;entryDy=0;" parent="1" target="YP4Gqv1PY-A-oXqR-h6G-208" edge="1">
          <mxGeometry relative="1" as="geometry">
            <mxPoint x="873" y="1090" as="sourcePoint" />
            <mxPoint x="913" y="1010" as="targetPoint" />
          </mxGeometry>
        </mxCell>
        <mxCell id="YP4Gqv1PY-A-oXqR-h6G-211" value="" style="endArrow=none;html=1;rounded=0;entryX=0;entryY=0.5;entryDx=0;entryDy=0;" parent="1" target="YP4Gqv1PY-A-oXqR-h6G-209" edge="1">
          <mxGeometry relative="1" as="geometry">
            <mxPoint x="883" y="1090" as="sourcePoint" />
            <mxPoint x="924" y="1015" as="targetPoint" />
          </mxGeometry>
        </mxCell>
        <mxCell id="YP4Gqv1PY-A-oXqR-h6G-212" value="Propulsion" style="ellipse;whiteSpace=wrap;html=1;align=center;" parent="1" vertex="1">
          <mxGeometry x="1092" y="1540" width="70" height="30" as="geometry" />
        </mxCell>
        <mxCell id="YP4Gqv1PY-A-oXqR-h6G-213" value="Location" style="ellipse;whiteSpace=wrap;html=1;align=center;" parent="1" vertex="1">
          <mxGeometry x="916" y="1058.02" width="78.5" height="30" as="geometry" />
        </mxCell>
        <mxCell id="YP4Gqv1PY-A-oXqR-h6G-214" value="" style="endArrow=none;html=1;rounded=0;entryX=0;entryY=0.5;entryDx=0;entryDy=0;exitX=1;exitY=0;exitDx=0;exitDy=0;" parent="1" source="YP4Gqv1PY-A-oXqR-h6G-75" target="YP4Gqv1PY-A-oXqR-h6G-213" edge="1">
          <mxGeometry relative="1" as="geometry">
            <mxPoint x="893" y="1100" as="sourcePoint" />
            <mxPoint x="925" y="1050" as="targetPoint" />
          </mxGeometry>
        </mxCell>
        <mxCell id="YP4Gqv1PY-A-oXqR-h6G-215" value="Purpose" style="ellipse;whiteSpace=wrap;html=1;align=center;" parent="1" vertex="1">
          <mxGeometry x="1184.5" y="1540" width="70" height="30" as="geometry" />
        </mxCell>
        <mxCell id="YP4Gqv1PY-A-oXqR-h6G-216" value="" style="endArrow=none;html=1;rounded=0;exitX=0.5;exitY=0;exitDx=0;exitDy=0;entryX=0.25;entryY=1;entryDx=0;entryDy=0;" parent="1" source="YP4Gqv1PY-A-oXqR-h6G-219" target="YP4Gqv1PY-A-oXqR-h6G-6" edge="1">
          <mxGeometry relative="1" as="geometry">
            <mxPoint x="1056.5" y="1510" as="sourcePoint" />
            <mxPoint x="968" y="1440" as="targetPoint" />
          </mxGeometry>
        </mxCell>
        <mxCell id="YP4Gqv1PY-A-oXqR-h6G-217" value="" style="endArrow=none;html=1;rounded=0;exitX=0.5;exitY=0;exitDx=0;exitDy=0;entryX=0.393;entryY=0.992;entryDx=0;entryDy=0;entryPerimeter=0;" parent="1" source="YP4Gqv1PY-A-oXqR-h6G-212" target="YP4Gqv1PY-A-oXqR-h6G-6" edge="1">
          <mxGeometry relative="1" as="geometry">
            <mxPoint x="1067" y="1520" as="sourcePoint" />
            <mxPoint x="1154" y="1480" as="targetPoint" />
          </mxGeometry>
        </mxCell>
        <mxCell id="YP4Gqv1PY-A-oXqR-h6G-218" value="" style="endArrow=none;html=1;rounded=0;exitX=0.5;exitY=0;exitDx=0;exitDy=0;entryX=0.75;entryY=1;entryDx=0;entryDy=0;" parent="1" source="YP4Gqv1PY-A-oXqR-h6G-215" target="YP4Gqv1PY-A-oXqR-h6G-6" edge="1">
          <mxGeometry relative="1" as="geometry">
            <mxPoint x="1141" y="1550" as="sourcePoint" />
            <mxPoint x="1171" y="1480" as="targetPoint" />
          </mxGeometry>
        </mxCell>
        <mxCell id="YP4Gqv1PY-A-oXqR-h6G-219" value="COSPAR_ID" style="ellipse;whiteSpace=wrap;html=1;align=center;" parent="1" vertex="1">
          <mxGeometry x="1023" y="1510" width="80" height="30" as="geometry" />
        </mxCell>
        <mxCell id="YP4Gqv1PY-A-oXqR-h6G-220" value="Autonomy" style="ellipse;whiteSpace=wrap;html=1;align=center;" parent="1" vertex="1">
          <mxGeometry x="1081" y="1170" width="70" height="30" as="geometry" />
        </mxCell>
        <mxCell id="YP4Gqv1PY-A-oXqR-h6G-221" value="Purpose" style="ellipse;whiteSpace=wrap;html=1;align=center;" parent="1" vertex="1">
          <mxGeometry x="1197.5" y="1170" width="70" height="30" as="geometry" />
        </mxCell>
        <mxCell id="YP4Gqv1PY-A-oXqR-h6G-222" value="" style="endArrow=none;html=1;rounded=0;exitX=0.25;exitY=0;exitDx=0;exitDy=0;entryX=0.5;entryY=1;entryDx=0;entryDy=0;" parent="1" source="YP4Gqv1PY-A-oXqR-h6G-11" target="YP4Gqv1PY-A-oXqR-h6G-220" edge="1">
          <mxGeometry relative="1" as="geometry">
            <mxPoint x="968" y="1320" as="sourcePoint" />
            <mxPoint x="1058" y="1300" as="targetPoint" />
          </mxGeometry>
        </mxCell>
        <mxCell id="YP4Gqv1PY-A-oXqR-h6G-223" value="" style="endArrow=none;html=1;rounded=0;exitX=0.75;exitY=0;exitDx=0;exitDy=0;entryX=0.5;entryY=1;entryDx=0;entryDy=0;" parent="1" source="YP4Gqv1PY-A-oXqR-h6G-11" target="YP4Gqv1PY-A-oXqR-h6G-221" edge="1">
          <mxGeometry relative="1" as="geometry">
            <mxPoint x="1154" y="1240" as="sourcePoint" />
            <mxPoint x="1126" y="1210" as="targetPoint" />
          </mxGeometry>
        </mxCell>
        <mxCell id="YP4Gqv1PY-A-oXqR-h6G-224" value="Comm_Type" style="ellipse;whiteSpace=wrap;html=1;align=center;" parent="1" vertex="1">
          <mxGeometry x="1253" y="1570" width="75" height="30" as="geometry" />
        </mxCell>
        <mxCell id="YP4Gqv1PY-A-oXqR-h6G-225" value="" style="endArrow=none;html=1;rounded=0;exitX=0.75;exitY=0;exitDx=0;exitDy=0;entryX=0.5;entryY=1;entryDx=0;entryDy=0;" parent="1" source="YP4Gqv1PY-A-oXqR-h6G-9" target="YP4Gqv1PY-A-oXqR-h6G-224" edge="1">
          <mxGeometry relative="1" as="geometry">
            <mxPoint x="1230" y="1550" as="sourcePoint" />
            <mxPoint x="1214" y="1480" as="targetPoint" />
          </mxGeometry>
        </mxCell>
        <mxCell id="YP4Gqv1PY-A-oXqR-h6G-226" value="Min_Capacity" style="ellipse;whiteSpace=wrap;html=1;align=center;" parent="1" vertex="1">
          <mxGeometry x="816" y="1717" width="88.5" height="30" as="geometry" />
        </mxCell>
        <mxCell id="YP4Gqv1PY-A-oXqR-h6G-227" value="Max_Capacity" style="ellipse;whiteSpace=wrap;html=1;align=center;" parent="1" vertex="1">
          <mxGeometry x="919.5" y="1717" width="88.5" height="30" as="geometry" />
        </mxCell>
        <mxCell id="YP4Gqv1PY-A-oXqR-h6G-228" value="" style="endArrow=none;html=1;rounded=0;exitX=0.25;exitY=1;exitDx=0;exitDy=0;entryX=0.5;entryY=0;entryDx=0;entryDy=0;" parent="1" source="YP4Gqv1PY-A-oXqR-h6G-7" target="YP4Gqv1PY-A-oXqR-h6G-226" edge="1">
          <mxGeometry relative="1" as="geometry">
            <mxPoint x="883" y="1840" as="sourcePoint" />
            <mxPoint x="1043" y="1840" as="targetPoint" />
          </mxGeometry>
        </mxCell>
        <mxCell id="YP4Gqv1PY-A-oXqR-h6G-229" value="" style="endArrow=none;html=1;rounded=0;exitX=0.5;exitY=1;exitDx=0;exitDy=0;entryX=0.5;entryY=0;entryDx=0;entryDy=0;" parent="1" source="YP4Gqv1PY-A-oXqR-h6G-7" target="YP4Gqv1PY-A-oXqR-h6G-227" edge="1">
          <mxGeometry relative="1" as="geometry">
            <mxPoint x="915" y="1695" as="sourcePoint" />
            <mxPoint x="843" y="1727" as="targetPoint" />
          </mxGeometry>
        </mxCell>
        <mxCell id="YP4Gqv1PY-A-oXqR-h6G-230" value="Norad_ID" style="ellipse;whiteSpace=wrap;html=1;align=center;" parent="1" vertex="1">
          <mxGeometry x="963.75" y="1755" width="88.5" height="30" as="geometry" />
        </mxCell>
        <mxCell id="YP4Gqv1PY-A-oXqR-h6G-231" value="Orbit_Type" style="ellipse;whiteSpace=wrap;html=1;align=center;" parent="1" vertex="1">
          <mxGeometry x="978" y="1785" width="88.5" height="30" as="geometry" />
        </mxCell>
        <mxCell id="YP4Gqv1PY-A-oXqR-h6G-232" value="Apogee" style="ellipse;whiteSpace=wrap;html=1;align=center;" parent="1" vertex="1">
          <mxGeometry x="1153" y="1717" width="88.5" height="30" as="geometry" />
        </mxCell>
        <mxCell id="YP4Gqv1PY-A-oXqR-h6G-234" value="Location" style="ellipse;whiteSpace=wrap;html=1;align=center;" parent="1" vertex="1">
          <mxGeometry x="1089" y="1815" width="88.5" height="30" as="geometry" />
        </mxCell>
        <mxCell id="YP4Gqv1PY-A-oXqR-h6G-235" value="Speed" style="ellipse;whiteSpace=wrap;html=1;align=center;" parent="1" vertex="1">
          <mxGeometry x="1178.25" y="1910" width="88.5" height="30" as="geometry" />
        </mxCell>
        <mxCell id="YP4Gqv1PY-A-oXqR-h6G-236" value="Altitude" style="ellipse;whiteSpace=wrap;html=1;align=center;" parent="1" vertex="1">
          <mxGeometry x="1111.5" y="1930" width="88.5" height="30" as="geometry" />
        </mxCell>
        <mxCell id="YP4Gqv1PY-A-oXqR-h6G-237" value="Longitude" style="ellipse;whiteSpace=wrap;html=1;align=center;" parent="1" vertex="1">
          <mxGeometry x="1023" y="1930" width="88.5" height="30" as="geometry" />
        </mxCell>
        <mxCell id="YP4Gqv1PY-A-oXqR-h6G-238" value="Latitude" style="ellipse;whiteSpace=wrap;html=1;align=center;" parent="1" vertex="1">
          <mxGeometry x="955.5" y="1910" width="88.5" height="30" as="geometry" />
        </mxCell>
        <mxCell id="YP4Gqv1PY-A-oXqR-h6G-239" value="Period" style="ellipse;whiteSpace=wrap;html=1;align=center;" parent="1" vertex="1">
          <mxGeometry x="1132" y="1777" width="88.5" height="30" as="geometry" />
        </mxCell>
        <mxCell id="YP4Gqv1PY-A-oXqR-h6G-240" value="Perigee" style="ellipse;whiteSpace=wrap;html=1;align=center;" parent="1" vertex="1">
          <mxGeometry x="994.5" y="1815" width="88.5" height="30" as="geometry" />
        </mxCell>
        <mxCell id="YP4Gqv1PY-A-oXqR-h6G-241" value="Inclination" style="ellipse;whiteSpace=wrap;html=1;align=center;" parent="1" vertex="1">
          <mxGeometry x="1145.5" y="1747" width="88.5" height="30" as="geometry" />
        </mxCell>
        <mxCell id="YP4Gqv1PY-A-oXqR-h6G-242" value="" style="endArrow=none;html=1;rounded=0;exitX=0.109;exitY=0.995;exitDx=0;exitDy=0;exitPerimeter=0;entryX=0.5;entryY=0;entryDx=0;entryDy=0;" parent="1" source="YP4Gqv1PY-A-oXqR-h6G-8" target="YP4Gqv1PY-A-oXqR-h6G-230" edge="1">
          <mxGeometry relative="1" as="geometry">
            <mxPoint x="1063" y="1890" as="sourcePoint" />
            <mxPoint x="1223" y="1890" as="targetPoint" />
          </mxGeometry>
        </mxCell>
        <mxCell id="YP4Gqv1PY-A-oXqR-h6G-243" value="" style="endArrow=none;html=1;rounded=0;entryX=1;entryY=0;entryDx=0;entryDy=0;exitX=0.274;exitY=1.007;exitDx=0;exitDy=0;exitPerimeter=0;" parent="1" source="YP4Gqv1PY-A-oXqR-h6G-8" target="YP4Gqv1PY-A-oXqR-h6G-231" edge="1">
          <mxGeometry relative="1" as="geometry">
            <mxPoint x="1063" y="1700" as="sourcePoint" />
            <mxPoint x="1062" y="1780" as="targetPoint" />
          </mxGeometry>
        </mxCell>
        <mxCell id="YP4Gqv1PY-A-oXqR-h6G-244" value="" style="endArrow=none;html=1;rounded=0;entryX=1;entryY=0;entryDx=0;entryDy=0;exitX=0.387;exitY=1.01;exitDx=0;exitDy=0;exitPerimeter=0;" parent="1" source="YP4Gqv1PY-A-oXqR-h6G-8" target="YP4Gqv1PY-A-oXqR-h6G-240" edge="1">
          <mxGeometry relative="1" as="geometry">
            <mxPoint x="1083" y="1690" as="sourcePoint" />
            <mxPoint x="1064" y="1799" as="targetPoint" />
          </mxGeometry>
        </mxCell>
        <mxCell id="YP4Gqv1PY-A-oXqR-h6G-245" value="" style="endArrow=none;html=1;rounded=0;entryX=0.5;entryY=0;entryDx=0;entryDy=0;exitX=0.5;exitY=1;exitDx=0;exitDy=0;" parent="1" source="YP4Gqv1PY-A-oXqR-h6G-8" target="YP4Gqv1PY-A-oXqR-h6G-234" edge="1">
          <mxGeometry relative="1" as="geometry">
            <mxPoint x="1083" y="1694" as="sourcePoint" />
            <mxPoint x="1080" y="1829" as="targetPoint" />
          </mxGeometry>
        </mxCell>
        <mxCell id="YP4Gqv1PY-A-oXqR-h6G-247" value="" style="endArrow=none;html=1;rounded=0;entryX=0;entryY=0;entryDx=0;entryDy=0;exitX=0.75;exitY=1;exitDx=0;exitDy=0;" parent="1" source="YP4Gqv1PY-A-oXqR-h6G-8" target="YP4Gqv1PY-A-oXqR-h6G-239" edge="1">
          <mxGeometry relative="1" as="geometry">
            <mxPoint x="1118" y="1695" as="sourcePoint" />
            <mxPoint x="1137" y="1821" as="targetPoint" />
          </mxGeometry>
        </mxCell>
        <mxCell id="YP4Gqv1PY-A-oXqR-h6G-248" value="" style="endArrow=none;html=1;rounded=0;entryX=0;entryY=0;entryDx=0;entryDy=0;exitX=0.836;exitY=1.017;exitDx=0;exitDy=0;exitPerimeter=0;" parent="1" source="YP4Gqv1PY-A-oXqR-h6G-8" target="YP4Gqv1PY-A-oXqR-h6G-241" edge="1">
          <mxGeometry relative="1" as="geometry">
            <mxPoint x="1135" y="1695" as="sourcePoint" />
            <mxPoint x="1155" y="1791" as="targetPoint" />
          </mxGeometry>
        </mxCell>
        <mxCell id="YP4Gqv1PY-A-oXqR-h6G-249" value="" style="endArrow=none;html=1;rounded=0;entryX=0;entryY=0;entryDx=0;entryDy=0;exitX=0.92;exitY=1.002;exitDx=0;exitDy=0;exitPerimeter=0;" parent="1" source="YP4Gqv1PY-A-oXqR-h6G-8" target="YP4Gqv1PY-A-oXqR-h6G-232" edge="1">
          <mxGeometry relative="1" as="geometry">
            <mxPoint x="1145" y="1696" as="sourcePoint" />
            <mxPoint x="1168" y="1761" as="targetPoint" />
          </mxGeometry>
        </mxCell>
        <mxCell id="YP4Gqv1PY-A-oXqR-h6G-250" value="" style="endArrow=none;html=1;rounded=0;entryX=0.5;entryY=0;entryDx=0;entryDy=0;exitX=1;exitY=1;exitDx=0;exitDy=0;" parent="1" source="YP4Gqv1PY-A-oXqR-h6G-234" target="YP4Gqv1PY-A-oXqR-h6G-235" edge="1">
          <mxGeometry relative="1" as="geometry">
            <mxPoint x="1105" y="1695" as="sourcePoint" />
            <mxPoint x="1113" y="1847" as="targetPoint" />
          </mxGeometry>
        </mxCell>
        <mxCell id="YP4Gqv1PY-A-oXqR-h6G-251" value="" style="endArrow=none;html=1;rounded=0;entryX=0.5;entryY=0;entryDx=0;entryDy=0;exitX=0.647;exitY=0.983;exitDx=0;exitDy=0;exitPerimeter=0;" parent="1" source="YP4Gqv1PY-A-oXqR-h6G-234" target="YP4Gqv1PY-A-oXqR-h6G-236" edge="1">
          <mxGeometry relative="1" as="geometry">
            <mxPoint x="1144" y="1873" as="sourcePoint" />
            <mxPoint x="1233" y="1920" as="targetPoint" />
          </mxGeometry>
        </mxCell>
        <mxCell id="YP4Gqv1PY-A-oXqR-h6G-252" value="" style="endArrow=none;html=1;rounded=0;entryX=0.5;entryY=0;entryDx=0;entryDy=0;exitX=0.328;exitY=0.939;exitDx=0;exitDy=0;exitPerimeter=0;" parent="1" source="YP4Gqv1PY-A-oXqR-h6G-234" target="YP4Gqv1PY-A-oXqR-h6G-237" edge="1">
          <mxGeometry relative="1" as="geometry">
            <mxPoint x="1126" y="1876" as="sourcePoint" />
            <mxPoint x="1166" y="1940" as="targetPoint" />
          </mxGeometry>
        </mxCell>
        <mxCell id="YP4Gqv1PY-A-oXqR-h6G-253" value="" style="endArrow=none;html=1;rounded=0;entryX=0.5;entryY=0;entryDx=0;entryDy=0;exitX=0;exitY=1;exitDx=0;exitDy=0;" parent="1" source="YP4Gqv1PY-A-oXqR-h6G-234" target="YP4Gqv1PY-A-oXqR-h6G-238" edge="1">
          <mxGeometry relative="1" as="geometry">
            <mxPoint x="1098" y="1875" as="sourcePoint" />
            <mxPoint x="1077" y="1940" as="targetPoint" />
          </mxGeometry>
        </mxCell>
        <mxCell id="YP4Gqv1PY-A-oXqR-h6G-254" value="Norad_ID" style="ellipse;whiteSpace=wrap;html=1;align=center;" parent="1" vertex="1">
          <mxGeometry x="1315.5" y="1779.5" width="88.5" height="30" as="geometry" />
        </mxCell>
        <mxCell id="YP4Gqv1PY-A-oXqR-h6G-255" value="Orbit_Type" style="ellipse;whiteSpace=wrap;html=1;align=center;" parent="1" vertex="1">
          <mxGeometry x="1329.75" y="1809.5" width="88.5" height="30" as="geometry" />
        </mxCell>
        <mxCell id="YP4Gqv1PY-A-oXqR-h6G-256" value="Apogee" style="ellipse;whiteSpace=wrap;html=1;align=center;" parent="1" vertex="1">
          <mxGeometry x="1508.5" y="1741.5" width="88.5" height="30" as="geometry" />
        </mxCell>
        <mxCell id="YP4Gqv1PY-A-oXqR-h6G-258" value="Location" style="ellipse;whiteSpace=wrap;html=1;align=center;" parent="1" vertex="1">
          <mxGeometry x="1434.75" y="1839.5" width="88.5" height="30" as="geometry" />
        </mxCell>
        <mxCell id="YP4Gqv1PY-A-oXqR-h6G-259" value="Speed" style="ellipse;whiteSpace=wrap;html=1;align=center;" parent="1" vertex="1">
          <mxGeometry x="1530" y="1934.5" width="88.5" height="30" as="geometry" />
        </mxCell>
        <mxCell id="YP4Gqv1PY-A-oXqR-h6G-260" value="Altitude" style="ellipse;whiteSpace=wrap;html=1;align=center;" parent="1" vertex="1">
          <mxGeometry x="1463.25" y="1954.5" width="88.5" height="30" as="geometry" />
        </mxCell>
        <mxCell id="YP4Gqv1PY-A-oXqR-h6G-261" value="Longitude" style="ellipse;whiteSpace=wrap;html=1;align=center;" parent="1" vertex="1">
          <mxGeometry x="1374.75" y="1954.5" width="88.5" height="30" as="geometry" />
        </mxCell>
        <mxCell id="YP4Gqv1PY-A-oXqR-h6G-262" value="Latitude" style="ellipse;whiteSpace=wrap;html=1;align=center;" parent="1" vertex="1">
          <mxGeometry x="1307.25" y="1934.5" width="88.5" height="30" as="geometry" />
        </mxCell>
        <mxCell id="YP4Gqv1PY-A-oXqR-h6G-263" value="Period" style="ellipse;whiteSpace=wrap;html=1;align=center;" parent="1" vertex="1">
          <mxGeometry x="1483.75" y="1801.5" width="88.5" height="30" as="geometry" />
        </mxCell>
        <mxCell id="YP4Gqv1PY-A-oXqR-h6G-264" value="Perigee" style="ellipse;whiteSpace=wrap;html=1;align=center;" parent="1" vertex="1">
          <mxGeometry x="1346.25" y="1839.5" width="88.5" height="30" as="geometry" />
        </mxCell>
        <mxCell id="YP4Gqv1PY-A-oXqR-h6G-265" value="Inclination" style="ellipse;whiteSpace=wrap;html=1;align=center;" parent="1" vertex="1">
          <mxGeometry x="1497.25" y="1771.5" width="88.5" height="30" as="geometry" />
        </mxCell>
        <mxCell id="YP4Gqv1PY-A-oXqR-h6G-266" value="" style="endArrow=none;html=1;rounded=0;entryX=0.5;entryY=0;entryDx=0;entryDy=0;exitX=1;exitY=1;exitDx=0;exitDy=0;" parent="1" source="YP4Gqv1PY-A-oXqR-h6G-258" target="YP4Gqv1PY-A-oXqR-h6G-259" edge="1">
          <mxGeometry relative="1" as="geometry">
            <mxPoint x="1456.75" y="1719.5" as="sourcePoint" />
            <mxPoint x="1464.75" y="1871.5" as="targetPoint" />
          </mxGeometry>
        </mxCell>
        <mxCell id="YP4Gqv1PY-A-oXqR-h6G-267" value="" style="endArrow=none;html=1;rounded=0;entryX=0.5;entryY=0;entryDx=0;entryDy=0;exitX=0.647;exitY=0.983;exitDx=0;exitDy=0;exitPerimeter=0;" parent="1" source="YP4Gqv1PY-A-oXqR-h6G-258" target="YP4Gqv1PY-A-oXqR-h6G-260" edge="1">
          <mxGeometry relative="1" as="geometry">
            <mxPoint x="1495.75" y="1897.5" as="sourcePoint" />
            <mxPoint x="1584.75" y="1944.5" as="targetPoint" />
          </mxGeometry>
        </mxCell>
        <mxCell id="YP4Gqv1PY-A-oXqR-h6G-268" value="" style="endArrow=none;html=1;rounded=0;entryX=0.5;entryY=0;entryDx=0;entryDy=0;exitX=0.328;exitY=0.939;exitDx=0;exitDy=0;exitPerimeter=0;" parent="1" source="YP4Gqv1PY-A-oXqR-h6G-258" target="YP4Gqv1PY-A-oXqR-h6G-261" edge="1">
          <mxGeometry relative="1" as="geometry">
            <mxPoint x="1477.75" y="1900.5" as="sourcePoint" />
            <mxPoint x="1517.75" y="1964.5" as="targetPoint" />
          </mxGeometry>
        </mxCell>
        <mxCell id="YP4Gqv1PY-A-oXqR-h6G-269" value="" style="endArrow=none;html=1;rounded=0;entryX=0.5;entryY=0;entryDx=0;entryDy=0;exitX=0;exitY=1;exitDx=0;exitDy=0;" parent="1" source="YP4Gqv1PY-A-oXqR-h6G-258" target="YP4Gqv1PY-A-oXqR-h6G-262" edge="1">
          <mxGeometry relative="1" as="geometry">
            <mxPoint x="1449.75" y="1899.5" as="sourcePoint" />
            <mxPoint x="1428.75" y="1964.5" as="targetPoint" />
          </mxGeometry>
        </mxCell>
        <mxCell id="YP4Gqv1PY-A-oXqR-h6G-270" value="" style="endArrow=none;html=1;rounded=0;exitX=0.447;exitY=0.052;exitDx=0;exitDy=0;exitPerimeter=0;entryX=0.5;entryY=1;entryDx=0;entryDy=0;" parent="1" source="YP4Gqv1PY-A-oXqR-h6G-30" target="YP4Gqv1PY-A-oXqR-h6G-13" edge="1">
          <mxGeometry relative="1" as="geometry">
            <mxPoint x="1332.5" y="1570" as="sourcePoint" />
            <mxPoint x="1413" y="1530" as="targetPoint" />
          </mxGeometry>
        </mxCell>
        <mxCell id="YP4Gqv1PY-A-oXqR-h6G-271" value="" style="endArrow=none;html=1;rounded=0;exitX=0.545;exitY=0.064;exitDx=0;exitDy=0;exitPerimeter=0;entryX=0.533;entryY=1.001;entryDx=0;entryDy=0;entryPerimeter=0;" parent="1" source="YP4Gqv1PY-A-oXqR-h6G-30" target="YP4Gqv1PY-A-oXqR-h6G-13" edge="1">
          <mxGeometry relative="1" as="geometry">
            <mxPoint x="1422" y="1592" as="sourcePoint" />
            <mxPoint x="1416" y="1540" as="targetPoint" />
          </mxGeometry>
        </mxCell>
        <mxCell id="YP4Gqv1PY-A-oXqR-h6G-272" value="Min_Capacity" style="ellipse;whiteSpace=wrap;html=1;align=center;" parent="1" vertex="1">
          <mxGeometry x="1296" y="1749.5" width="88.5" height="30" as="geometry" />
        </mxCell>
        <mxCell id="YP4Gqv1PY-A-oXqR-h6G-273" value="Max_Capacity" style="ellipse;whiteSpace=wrap;html=1;align=center;" parent="1" vertex="1">
          <mxGeometry x="1274" y="1719.5" width="88.5" height="30" as="geometry" />
        </mxCell>
        <mxCell id="YP4Gqv1PY-A-oXqR-h6G-274" value="" style="endArrow=none;html=1;rounded=0;entryX=0.5;entryY=0;entryDx=0;entryDy=0;exitX=0.5;exitY=1;exitDx=0;exitDy=0;" parent="1" source="YP4Gqv1PY-A-oXqR-h6G-10" target="YP4Gqv1PY-A-oXqR-h6G-258" edge="1">
          <mxGeometry relative="1" as="geometry">
            <mxPoint x="1439.25" y="1712" as="sourcePoint" />
            <mxPoint x="1418.25" y="1777" as="targetPoint" />
          </mxGeometry>
        </mxCell>
        <mxCell id="YP4Gqv1PY-A-oXqR-h6G-276" value="" style="endArrow=none;html=1;rounded=0;entryX=0;entryY=0;entryDx=0;entryDy=0;exitX=0.692;exitY=0.993;exitDx=0;exitDy=0;exitPerimeter=0;" parent="1" source="YP4Gqv1PY-A-oXqR-h6G-10" target="YP4Gqv1PY-A-oXqR-h6G-263" edge="1">
          <mxGeometry relative="1" as="geometry">
            <mxPoint x="1446.5" y="1703.5" as="sourcePoint" />
            <mxPoint x="1492.5" y="1839.5" as="targetPoint" />
          </mxGeometry>
        </mxCell>
        <mxCell id="YP4Gqv1PY-A-oXqR-h6G-277" value="" style="endArrow=none;html=1;rounded=0;entryX=0;entryY=0;entryDx=0;entryDy=0;exitX=0.809;exitY=0.985;exitDx=0;exitDy=0;exitPerimeter=0;" parent="1" source="YP4Gqv1PY-A-oXqR-h6G-10" target="YP4Gqv1PY-A-oXqR-h6G-265" edge="1">
          <mxGeometry relative="1" as="geometry">
            <mxPoint x="1463.25" y="1699" as="sourcePoint" />
            <mxPoint x="1513.75" y="1801.5" as="targetPoint" />
          </mxGeometry>
        </mxCell>
        <mxCell id="YP4Gqv1PY-A-oXqR-h6G-278" value="" style="endArrow=none;html=1;rounded=0;entryX=0;entryY=0;entryDx=0;entryDy=0;exitX=0.888;exitY=1.001;exitDx=0;exitDy=0;exitPerimeter=0;" parent="1" source="YP4Gqv1PY-A-oXqR-h6G-10" target="YP4Gqv1PY-A-oXqR-h6G-256" edge="1">
          <mxGeometry relative="1" as="geometry">
            <mxPoint x="1474.5" y="1695" as="sourcePoint" />
            <mxPoint x="1521.25" y="1772" as="targetPoint" />
          </mxGeometry>
        </mxCell>
        <mxCell id="YP4Gqv1PY-A-oXqR-h6G-279" value="" style="endArrow=none;html=1;rounded=0;entryX=0.433;entryY=1.001;entryDx=0;entryDy=0;exitX=1;exitY=0;exitDx=0;exitDy=0;entryPerimeter=0;" parent="1" source="YP4Gqv1PY-A-oXqR-h6G-264" target="YP4Gqv1PY-A-oXqR-h6G-10" edge="1">
          <mxGeometry relative="1" as="geometry">
            <mxPoint x="1484.5" y="1705" as="sourcePoint" />
            <mxPoint x="1531" y="1756" as="targetPoint" />
          </mxGeometry>
        </mxCell>
        <mxCell id="YP4Gqv1PY-A-oXqR-h6G-280" value="" style="endArrow=none;html=1;rounded=0;entryX=0.359;entryY=1.001;entryDx=0;entryDy=0;exitX=1;exitY=0;exitDx=0;exitDy=0;entryPerimeter=0;" parent="1" source="YP4Gqv1PY-A-oXqR-h6G-255" target="YP4Gqv1PY-A-oXqR-h6G-10" edge="1">
          <mxGeometry relative="1" as="geometry">
            <mxPoint x="1432" y="1854" as="sourcePoint" />
            <mxPoint x="1416" y="1695" as="targetPoint" />
          </mxGeometry>
        </mxCell>
        <mxCell id="YP4Gqv1PY-A-oXqR-h6G-281" value="" style="endArrow=none;html=1;rounded=0;entryX=0.289;entryY=0.973;entryDx=0;entryDy=0;exitX=1;exitY=0;exitDx=0;exitDy=0;entryPerimeter=0;" parent="1" source="YP4Gqv1PY-A-oXqR-h6G-254" target="YP4Gqv1PY-A-oXqR-h6G-10" edge="1">
          <mxGeometry relative="1" as="geometry">
            <mxPoint x="1432" y="1861.5" as="sourcePoint" />
            <mxPoint x="1416" y="1702.5" as="targetPoint" />
          </mxGeometry>
        </mxCell>
        <mxCell id="YP4Gqv1PY-A-oXqR-h6G-282" value="" style="endArrow=none;html=1;rounded=0;entryX=0.25;entryY=1;entryDx=0;entryDy=0;exitX=1;exitY=0;exitDx=0;exitDy=0;" parent="1" source="YP4Gqv1PY-A-oXqR-h6G-272" target="YP4Gqv1PY-A-oXqR-h6G-10" edge="1">
          <mxGeometry relative="1" as="geometry">
            <mxPoint x="1401" y="1794" as="sourcePoint" />
            <mxPoint x="1399" y="1694" as="targetPoint" />
          </mxGeometry>
        </mxCell>
        <mxCell id="YP4Gqv1PY-A-oXqR-h6G-283" value="" style="endArrow=none;html=1;rounded=0;entryX=0.15;entryY=1.009;entryDx=0;entryDy=0;exitX=1;exitY=0;exitDx=0;exitDy=0;entryPerimeter=0;" parent="1" source="YP4Gqv1PY-A-oXqR-h6G-273" target="YP4Gqv1PY-A-oXqR-h6G-10" edge="1">
          <mxGeometry relative="1" as="geometry">
            <mxPoint x="1382" y="1764" as="sourcePoint" />
            <mxPoint x="1395" y="1695" as="targetPoint" />
          </mxGeometry>
        </mxCell>
        <mxCell id="YP4Gqv1PY-A-oXqR-h6G-284" value="Status" style="ellipse;whiteSpace=wrap;html=1;align=center;" parent="1" vertex="1">
          <mxGeometry x="1474.5" y="1580" width="88.5" height="30" as="geometry" />
        </mxCell>
        <mxCell id="YP4Gqv1PY-A-oXqR-h6G-285" value="" style="endArrow=none;html=1;rounded=0;exitX=0.75;exitY=1;exitDx=0;exitDy=0;entryX=0;entryY=0.5;entryDx=0;entryDy=0;" parent="1" source="YP4Gqv1PY-A-oXqR-h6G-13" target="YP4Gqv1PY-A-oXqR-h6G-284" edge="1">
          <mxGeometry relative="1" as="geometry">
            <mxPoint x="1513" y="1620" as="sourcePoint" />
            <mxPoint x="1673" y="1620" as="targetPoint" />
          </mxGeometry>
        </mxCell>
        <mxCell id="YP4Gqv1PY-A-oXqR-h6G-286" value="Type" style="ellipse;whiteSpace=wrap;html=1;align=center;" parent="1" vertex="1">
          <mxGeometry x="1499" y="1540" width="88.5" height="30" as="geometry" />
        </mxCell>
        <mxCell id="YP4Gqv1PY-A-oXqR-h6G-287" value="Desc" style="ellipse;whiteSpace=wrap;html=1;align=center;" parent="1" vertex="1">
          <mxGeometry x="1538.5" y="1510" width="88.5" height="30" as="geometry" />
        </mxCell>
        <mxCell id="YP4Gqv1PY-A-oXqR-h6G-288" value="Module_ID" style="ellipse;whiteSpace=wrap;html=1;align=center;fontStyle=4;" parent="1" vertex="1">
          <mxGeometry x="1505.75" y="1480" width="74.5" height="30" as="geometry" />
        </mxCell>
        <mxCell id="YP4Gqv1PY-A-oXqR-h6G-289" value="" style="endArrow=none;html=1;rounded=0;exitX=0;exitY=0.5;exitDx=0;exitDy=0;entryX=1;entryY=0.25;entryDx=0;entryDy=0;" parent="1" source="YP4Gqv1PY-A-oXqR-h6G-288" target="YP4Gqv1PY-A-oXqR-h6G-13" edge="1">
          <mxGeometry relative="1" as="geometry">
            <mxPoint x="1295" y="1655" as="sourcePoint" />
            <mxPoint x="1326" y="1610" as="targetPoint" />
          </mxGeometry>
        </mxCell>
        <mxCell id="YP4Gqv1PY-A-oXqR-h6G-290" value="" style="endArrow=none;html=1;rounded=0;exitX=0;exitY=0.5;exitDx=0;exitDy=0;entryX=1;entryY=0.5;entryDx=0;entryDy=0;" parent="1" source="YP4Gqv1PY-A-oXqR-h6G-287" target="YP4Gqv1PY-A-oXqR-h6G-13" edge="1">
          <mxGeometry relative="1" as="geometry">
            <mxPoint x="1516" y="1505" as="sourcePoint" />
            <mxPoint x="1483" y="1510" as="targetPoint" />
          </mxGeometry>
        </mxCell>
        <mxCell id="YP4Gqv1PY-A-oXqR-h6G-291" value="" style="endArrow=none;html=1;rounded=0;exitX=0;exitY=0.5;exitDx=0;exitDy=0;entryX=1;entryY=0.75;entryDx=0;entryDy=0;" parent="1" source="YP4Gqv1PY-A-oXqR-h6G-286" target="YP4Gqv1PY-A-oXqR-h6G-13" edge="1">
          <mxGeometry relative="1" as="geometry">
            <mxPoint x="1549" y="1535" as="sourcePoint" />
            <mxPoint x="1483" y="1520" as="targetPoint" />
          </mxGeometry>
        </mxCell>
        <mxCell id="YP4Gqv1PY-A-oXqR-h6G-292" value="Role" style="ellipse;whiteSpace=wrap;html=1;align=center;" parent="1" vertex="1">
          <mxGeometry x="1569" y="1101" width="88.5" height="30" as="geometry" />
        </mxCell>
        <mxCell id="YP4Gqv1PY-A-oXqR-h6G-293" value="" style="endArrow=none;html=1;rounded=0;exitX=1;exitY=0.5;exitDx=0;exitDy=0;entryX=0;entryY=0.5;entryDx=0;entryDy=0;" parent="1" source="YP4Gqv1PY-A-oXqR-h6G-292" target="YP4Gqv1PY-A-oXqR-h6G-99" edge="1">
          <mxGeometry relative="1" as="geometry">
            <mxPoint x="1546.5" y="1277.5" as="sourcePoint" />
            <mxPoint x="1706.5" y="1277.5" as="targetPoint" />
          </mxGeometry>
        </mxCell>
        <mxCell id="YP4Gqv1PY-A-oXqR-h6G-294" value="CEO" style="rounded=1;arcSize=10;whiteSpace=wrap;html=1;align=center;" parent="1" vertex="1">
          <mxGeometry x="1125" y="770" width="119" height="40" as="geometry" />
        </mxCell>
        <mxCell id="YP4Gqv1PY-A-oXqR-h6G-295" value="" style="endArrow=none;html=1;rounded=0;entryX=1;entryY=0.5;entryDx=0;entryDy=0;exitX=0;exitY=0.25;exitDx=0;exitDy=0;" parent="1" source="YP4Gqv1PY-A-oXqR-h6G-35" target="YP4Gqv1PY-A-oXqR-h6G-294" edge="1">
          <mxGeometry relative="1" as="geometry">
            <mxPoint x="1196" y="1100" as="sourcePoint" />
            <mxPoint x="1195" y="900" as="targetPoint" />
            <Array as="points">
              <mxPoint x="1683" y="990" />
              <mxPoint x="1653" y="990" />
              <mxPoint x="1653" y="930" />
            </Array>
          </mxGeometry>
        </mxCell>
        <mxCell id="YP4Gqv1PY-A-oXqR-h6G-296" value="" style="endArrow=none;html=1;rounded=0;entryX=0.5;entryY=1;entryDx=0;entryDy=0;exitX=0.5;exitY=0;exitDx=0;exitDy=0;" parent="1" source="YP4Gqv1PY-A-oXqR-h6G-117" target="YP4Gqv1PY-A-oXqR-h6G-294" edge="1">
          <mxGeometry relative="1" as="geometry">
            <mxPoint x="1689" y="953" as="sourcePoint" />
            <mxPoint x="1252" y="780" as="targetPoint" />
            <Array as="points" />
          </mxGeometry>
        </mxCell>
        <mxCell id="YP4Gqv1PY-A-oXqR-h6G-297" value="1" style="text;html=1;align=center;verticalAlign=middle;resizable=0;points=[];autosize=1;strokeColor=none;fillColor=none;" parent="1" vertex="1">
          <mxGeometry x="1178.25" y="810" width="30" height="30" as="geometry" />
        </mxCell>
        <mxCell id="YP4Gqv1PY-A-oXqR-h6G-298" value="tem" style="shape=rhombus;perimeter=rhombusPerimeter;whiteSpace=wrap;html=1;align=center;" parent="1" vertex="1">
          <mxGeometry x="1407" y="1230" width="51" height="40" as="geometry" />
        </mxCell>
        <mxCell id="YP4Gqv1PY-A-oXqR-h6G-299" value="tem" style="shape=rhombus;perimeter=rhombusPerimeter;whiteSpace=wrap;html=1;align=center;" parent="1" vertex="1">
          <mxGeometry x="1543.75" y="1227.5" width="51" height="40" as="geometry" />
        </mxCell>
        <mxCell id="YP4Gqv1PY-A-oXqR-h6G-300" value="" style="endArrow=none;html=1;rounded=0;exitX=1;exitY=0.5;exitDx=0;exitDy=0;entryX=0;entryY=0.5;entryDx=0;entryDy=0;" parent="1" source="YP4Gqv1PY-A-oXqR-h6G-299" target="YP4Gqv1PY-A-oXqR-h6G-16" edge="1">
          <mxGeometry relative="1" as="geometry">
            <mxPoint x="1214.25" y="1292.5" as="sourcePoint" />
            <mxPoint x="1243.25" y="1262.5" as="targetPoint" />
          </mxGeometry>
        </mxCell>
        <mxCell id="YP4Gqv1PY-A-oXqR-h6G-301" value="" style="endArrow=none;html=1;rounded=0;exitX=0.5;exitY=1;exitDx=0;exitDy=0;entryX=1;entryY=0.25;entryDx=0;entryDy=0;" parent="1" source="YP4Gqv1PY-A-oXqR-h6G-298" target="YP4Gqv1PY-A-oXqR-h6G-87" edge="1">
          <mxGeometry relative="1" as="geometry">
            <mxPoint x="1431.5" y="1260" as="sourcePoint" />
            <mxPoint x="1473" y="1320" as="targetPoint" />
            <Array as="points">
              <mxPoint x="1433" y="1290" />
              <mxPoint x="1433" y="1320" />
            </Array>
          </mxGeometry>
        </mxCell>
        <mxCell id="YP4Gqv1PY-A-oXqR-h6G-302" value="" style="endArrow=none;html=1;rounded=0;exitX=1;exitY=0.5;exitDx=0;exitDy=0;entryX=0;entryY=0.5;entryDx=0;entryDy=0;" parent="1" source="YP4Gqv1PY-A-oXqR-h6G-11" target="YP4Gqv1PY-A-oXqR-h6G-298" edge="1">
          <mxGeometry relative="1" as="geometry">
            <mxPoint x="1241.5" y="1249.75" as="sourcePoint" />
            <mxPoint x="1282.5" y="1249.75" as="targetPoint" />
          </mxGeometry>
        </mxCell>
        <mxCell id="YP4Gqv1PY-A-oXqR-h6G-303" value="Scope" style="ellipse;whiteSpace=wrap;html=1;align=center;" parent="1" vertex="1">
          <mxGeometry x="1309.5" y="1600" width="63.5" height="30" as="geometry" />
        </mxCell>
        <mxCell id="YP4Gqv1PY-A-oXqR-h6G-304" value="" style="endArrow=none;html=1;rounded=0;exitX=1;exitY=0;exitDx=0;exitDy=0;entryX=0;entryY=1;entryDx=0;entryDy=0;" parent="1" source="YP4Gqv1PY-A-oXqR-h6G-9" target="YP4Gqv1PY-A-oXqR-h6G-303" edge="1">
          <mxGeometry relative="1" as="geometry">
            <mxPoint x="1295" y="1655" as="sourcePoint" />
            <mxPoint x="1301" y="1610" as="targetPoint" />
          </mxGeometry>
        </mxCell>
        <mxCell id="YP4Gqv1PY-A-oXqR-h6G-305" value="tem" style="shape=rhombus;perimeter=rhombusPerimeter;whiteSpace=wrap;html=1;align=center;" parent="1" vertex="1">
          <mxGeometry x="1277" y="1310" width="51" height="40" as="geometry" />
        </mxCell>
        <mxCell id="YP4Gqv1PY-A-oXqR-h6G-306" value="" style="endArrow=none;html=1;rounded=0;exitX=0.5;exitY=0;exitDx=0;exitDy=0;entryX=0.25;entryY=1;entryDx=0;entryDy=0;" parent="1" source="YP4Gqv1PY-A-oXqR-h6G-305" target="YP4Gqv1PY-A-oXqR-h6G-113" edge="1">
          <mxGeometry relative="1" as="geometry">
            <mxPoint x="1244" y="1340" as="sourcePoint" />
            <mxPoint x="1272" y="1340" as="targetPoint" />
          </mxGeometry>
        </mxCell>
        <mxCell id="YP4Gqv1PY-A-oXqR-h6G-307" value="" style="endArrow=none;html=1;rounded=0;exitX=0.945;exitY=0.546;exitDx=0;exitDy=0;exitPerimeter=0;entryX=-0.001;entryY=0.546;entryDx=0;entryDy=0;entryPerimeter=0;" parent="1" edge="1">
          <mxGeometry relative="1" as="geometry">
            <mxPoint x="1234.5" y="1331.92" as="sourcePoint" />
            <mxPoint x="1278.5" y="1331.92" as="targetPoint" />
          </mxGeometry>
        </mxCell>
        <mxCell id="YP4Gqv1PY-A-oXqR-h6G-308" value="" style="endArrow=none;html=1;rounded=0;exitX=1.003;exitY=0.446;exitDx=0;exitDy=0;exitPerimeter=0;entryX=0.002;entryY=0.445;entryDx=0;entryDy=0;entryPerimeter=0;" parent="1" source="YP4Gqv1PY-A-oXqR-h6G-118" edge="1">
          <mxGeometry relative="1" as="geometry">
            <mxPoint x="1235.5" y="1327.92" as="sourcePoint" />
            <mxPoint x="1278.5" y="1327.92" as="targetPoint" />
          </mxGeometry>
        </mxCell>
        <mxCell id="YP4Gqv1PY-A-oXqR-h6G-309" value="N" style="text;html=1;align=center;verticalAlign=middle;resizable=0;points=[];autosize=1;strokeColor=none;fillColor=none;" parent="1" vertex="1">
          <mxGeometry x="1384.5" y="1295" width="30" height="30" as="geometry" />
        </mxCell>
        <mxCell id="YP4Gqv1PY-A-oXqR-h6G-310" value="N" style="text;html=1;align=center;verticalAlign=middle;resizable=0;points=[];autosize=1;strokeColor=none;fillColor=none;" parent="1" vertex="1">
          <mxGeometry x="1388.25" y="1330" width="30" height="30" as="geometry" />
        </mxCell>
        <mxCell id="YP4Gqv1PY-A-oXqR-h6G-311" value="1" style="text;html=1;align=center;verticalAlign=middle;resizable=0;points=[];autosize=1;strokeColor=none;fillColor=none;" parent="1" vertex="1">
          <mxGeometry x="1298" y="1165" width="30" height="30" as="geometry" />
        </mxCell>
        <mxCell id="YP4Gqv1PY-A-oXqR-h6G-312" value="N" style="text;html=1;align=center;verticalAlign=middle;resizable=0;points=[];autosize=1;strokeColor=none;fillColor=none;" parent="1" vertex="1">
          <mxGeometry x="1227.5" y="1330" width="30" height="30" as="geometry" />
        </mxCell>
        <mxCell id="YP4Gqv1PY-A-oXqR-h6G-313" value="" style="endArrow=none;html=1;rounded=0;entryX=1;entryY=0.5;entryDx=0;entryDy=0;exitX=0;exitY=0.5;exitDx=0;exitDy=0;" parent="1" source="YP4Gqv1PY-A-oXqR-h6G-12" target="YP4Gqv1PY-A-oXqR-h6G-39" edge="1">
          <mxGeometry relative="1" as="geometry">
            <mxPoint x="1708" y="943" as="sourcePoint" />
            <mxPoint x="1708" y="900" as="targetPoint" />
          </mxGeometry>
        </mxCell>
        <mxCell id="YP4Gqv1PY-A-oXqR-h6G-314" value="" style="group" parent="1" vertex="1" connectable="0">
          <mxGeometry x="1193" y="1350" width="4" height="41" as="geometry" />
        </mxCell>
        <mxCell id="YP4Gqv1PY-A-oXqR-h6G-315" value="" style="endArrow=none;html=1;rounded=0;exitX=0.382;exitY=1.05;exitDx=0;exitDy=0;exitPerimeter=0;" parent="YP4Gqv1PY-A-oXqR-h6G-314" edge="1">
          <mxGeometry relative="1" as="geometry">
            <mxPoint as="sourcePoint" />
            <mxPoint y="41" as="targetPoint" />
          </mxGeometry>
        </mxCell>
        <mxCell id="YP4Gqv1PY-A-oXqR-h6G-316" value="" style="endArrow=none;html=1;rounded=0;exitX=0.382;exitY=1.05;exitDx=0;exitDy=0;exitPerimeter=0;" parent="YP4Gqv1PY-A-oXqR-h6G-314" edge="1">
          <mxGeometry relative="1" as="geometry">
            <mxPoint x="4" as="sourcePoint" />
            <mxPoint x="4" y="41" as="targetPoint" />
          </mxGeometry>
        </mxCell>
        <mxCell id="YP4Gqv1PY-A-oXqR-h6G-317" value="tem" style="shape=rhombus;perimeter=rhombusPerimeter;whiteSpace=wrap;html=1;align=center;" parent="1" vertex="1">
          <mxGeometry x="1169.5" y="1368" width="51" height="40" as="geometry" />
        </mxCell>
        <mxCell id="YP4Gqv1PY-A-oXqR-h6G-318" value="" style="endArrow=none;html=1;rounded=0;entryX=0.5;entryY=1;entryDx=0;entryDy=0;exitX=0.676;exitY=0.009;exitDx=0;exitDy=0;exitPerimeter=0;" parent="1" source="YP4Gqv1PY-A-oXqR-h6G-6" target="YP4Gqv1PY-A-oXqR-h6G-317" edge="1">
          <mxGeometry width="50" height="50" relative="1" as="geometry">
            <mxPoint x="1195" y="1430" as="sourcePoint" />
            <mxPoint x="1283" y="1390" as="targetPoint" />
          </mxGeometry>
        </mxCell>
        <mxCell id="YP4Gqv1PY-A-oXqR-h6G-319" value="N" style="text;html=1;align=center;verticalAlign=middle;resizable=0;points=[];autosize=1;strokeColor=none;fillColor=none;" parent="1" vertex="1">
          <mxGeometry x="1190.5" y="1408" width="30" height="30" as="geometry" />
        </mxCell>
        <mxCell id="YP4Gqv1PY-A-oXqR-h6G-320" value="M" style="text;html=1;align=center;verticalAlign=middle;resizable=0;points=[];autosize=1;strokeColor=none;fillColor=none;" parent="1" vertex="1">
          <mxGeometry x="1190.5" y="1342" width="30" height="30" as="geometry" />
        </mxCell>
        <mxCell id="Zm9kgBvwJ1qBT8KEQQGw-1" value="Email" style="ellipse;whiteSpace=wrap;html=1;align=center;" parent="1" vertex="1">
          <mxGeometry x="1808.5" y="825" width="66" height="30" as="geometry" />
        </mxCell>
        <mxCell id="Zm9kgBvwJ1qBT8KEQQGw-2" value="Phone" style="ellipse;whiteSpace=wrap;html=1;align=center;" parent="1" vertex="1">
          <mxGeometry x="1549.75" y="835" width="66" height="30" as="geometry" />
        </mxCell>
        <mxCell id="Zm9kgBvwJ1qBT8KEQQGw-3" value="" style="endArrow=none;html=1;rounded=0;exitX=0;exitY=0.5;exitDx=0;exitDy=0;entryX=0.75;entryY=0;entryDx=0;entryDy=0;" parent="1" source="Zm9kgBvwJ1qBT8KEQQGw-1" target="YP4Gqv1PY-A-oXqR-h6G-4" edge="1">
          <mxGeometry relative="1" as="geometry">
            <mxPoint x="1817" y="815" as="sourcePoint" />
            <mxPoint x="1749" y="860" as="targetPoint" />
          </mxGeometry>
        </mxCell>
        <mxCell id="Zm9kgBvwJ1qBT8KEQQGw-4" value="" style="endArrow=none;html=1;rounded=0;exitX=1;exitY=0.5;exitDx=0;exitDy=0;entryX=0;entryY=0.25;entryDx=0;entryDy=0;" parent="1" source="Zm9kgBvwJ1qBT8KEQQGw-2" target="YP4Gqv1PY-A-oXqR-h6G-4" edge="1">
          <mxGeometry relative="1" as="geometry">
            <mxPoint x="1818" y="850" as="sourcePoint" />
            <mxPoint x="1737" y="860" as="targetPoint" />
          </mxGeometry>
        </mxCell>
        <mxCell id="Zm9kgBvwJ1qBT8KEQQGw-5" value="Acronym" style="ellipse;whiteSpace=wrap;html=1;align=center;" parent="1" vertex="1">
          <mxGeometry x="1097" y="872.5" width="60" height="30" as="geometry" />
        </mxCell>
        <mxCell id="Zm9kgBvwJ1qBT8KEQQGw-6" value="" style="endArrow=none;html=1;rounded=0;entryX=0.5;entryY=1;entryDx=0;entryDy=0;exitX=0.75;exitY=0;exitDx=0;exitDy=0;" parent="1" source="YP4Gqv1PY-A-oXqR-h6G-1" target="Zm9kgBvwJ1qBT8KEQQGw-5" edge="1">
          <mxGeometry relative="1" as="geometry">
            <mxPoint x="1073" y="940" as="sourcePoint" />
            <mxPoint x="1073" y="910" as="targetPoint" />
          </mxGeometry>
        </mxCell>
        <mxCell id="PBmIfK6szLZqfNauVavU-1" value="Launch_ID" style="ellipse;whiteSpace=wrap;html=1;align=center;fontStyle=4;" vertex="1" parent="1">
          <mxGeometry x="1136.75" y="1273.75" width="74.5" height="30" as="geometry" />
        </mxCell>
        <mxCell id="PBmIfK6szLZqfNauVavU-2" value="" style="endArrow=none;html=1;rounded=0;exitX=0.5;exitY=0;exitDx=0;exitDy=0;entryX=0.5;entryY=1;entryDx=0;entryDy=0;" edge="1" parent="1" source="YP4Gqv1PY-A-oXqR-h6G-118" target="PBmIfK6szLZqfNauVavU-1">
          <mxGeometry relative="1" as="geometry">
            <mxPoint x="968" y="1320" as="sourcePoint" />
            <mxPoint x="1058" y="1300" as="targetPoint" />
          </mxGeometry>
        </mxCell>
      </root>
    </mxGraphModel>
  </diagram>
</mxfile>
